<?xml version="1.0" encoding="UTF-8"?>
<svg width="684px" height="204px" viewBox="0 0 684 204" version="1.1" xmlns="http://www.w3.org/2000/svg" xmlns:xlink="http://www.w3.org/1999/xlink">
    <!-- Generator: Sketch 53.2 (72643) - https://sketchapp.com -->
    <title>logo-horizontal</title>
    <desc>Created with Sketch.</desc>
    <g id="logo-horizontal" stroke="none" stroke-width="1" fill="none" fill-rule="evenodd">
        <path d="M245.909948,43 C247.83935,43 249.919456,43.1089733 252.150327,43.3269231 C254.381198,43.5448729 256.551743,43.8445494 258.662027,44.2259615 C260.772311,44.6073737 262.701684,44.9887801 264.450205,45.3701923 C266.198726,45.7516045 267.555316,46.1602542 268.520018,46.5961538 L268.520018,64.7403846 L266.892093,64.7403846 C266.892093,59.5095892 264.902426,55.3958483 260.923034,52.3990385 C256.943642,49.4022286 252.120209,47.9038462 246.452589,47.9038462 C239.820269,47.9038462 234.4542,49.783635 230.35422,53.5432692 C226.25424,57.3029034 224.204281,61.6890775 224.204281,66.7019231 C224.204281,68.7724462 224.716771,71.1971015 225.741766,73.9759615 C226.76676,76.7548216 228.665987,79.3429367 231.439503,81.7403846 L267.072973,111.490385 C270.690602,114.541682 273.102319,117.81088 274.308195,121.298077 C275.514072,124.785274 276.117001,128.163445 276.117001,131.432692 C276.117001,140.477609 273.072209,147.833305 266.982533,153.5 C260.892857,159.166695 252.662874,162 242.292337,162 C239.398233,162 235.991683,161.727567 232.072585,161.182692 C228.153487,160.637818 224.355033,159.684302 220.67711,158.322115 C216.999187,156.959929 213.954395,155.189113 211.542642,153.009615 C211.180879,151.266017 211,149.086552 211,146.471154 C211,143.855756 211.241172,141.104181 211.723522,138.216346 C212.205873,135.328511 212.869095,132.685909 213.713208,130.288462 L215.341133,130.288462 C214.738195,135.846182 215.522003,140.695492 217.692581,144.836538 C219.863158,148.977585 223.028536,152.110566 227.18881,154.235577 C231.349084,156.360588 236.082078,157.314104 241.387934,157.096154 C248.020254,156.769229 253.717935,154.671494 258.481147,150.802885 C263.244358,146.934276 265.625929,141.730802 265.625929,135.192308 C265.625929,132.032035 265.022999,129.171487 263.817123,126.610577 C262.611247,124.049667 260.862752,121.842958 258.571587,119.990385 L223.84252,90.8942308 C220.22489,87.8429335 217.692588,84.4920054 216.245536,80.8413462 C214.798484,77.1906869 214.074969,73.7852722 214.074969,70.625 C214.074969,66.048054 215.280828,61.6346366 217.692581,57.3846154 C220.104333,53.1345941 223.691762,49.6746928 228.454974,47.0048077 C233.218186,44.3349225 239.036452,43 245.909948,43 Z M268.520018,45.0695652 L268.520018,48.173913 L254.773095,48.173913 L254.773095,45.0695652 L268.520018,45.0695652 Z M390.924476,111.980769 L388.753909,137.644231 C385.61863,142.330152 381.669444,146.498379 376.906233,150.149038 C372.143021,153.799698 366.535779,156.687489 360.084341,158.8125 C353.632902,160.937511 346.247019,162 337.926472,162 C325.385357,161.891025 314.231168,159.38464 304.463569,154.480769 C294.69597,149.576899 287.068916,142.684339 281.582178,133.802885 C276.095441,124.92143 273.352113,114.432753 273.352113,102.336538 C273.352113,90.4582739 276.065294,80.07857 281.491738,71.1971154 C286.918182,62.3156607 294.545236,55.3958581 304.373129,50.4375 C314.201021,45.4791419 325.747115,43 339.011756,43 C347.935241,43 355.984345,44.0624894 363.15931,46.1875 C370.334275,48.3125106 376.574592,50.9551124 381.880448,54.1153846 L385.498059,77.1634615 L383.870134,77.1634615 C381.217206,67.57367 375.790843,60.2997043 367.590884,55.3413462 C359.390924,50.382988 349.864643,47.9038462 339.011756,47.9038462 C328.400043,47.9038462 319.205373,50.1650415 311.42747,54.6875 C303.649567,59.2099585 297.620276,65.5304081 293.339415,73.6490385 C289.058553,81.7676688 286.918155,91.2755865 286.918155,102.173077 C286.918155,113.070567 289.058553,122.605728 293.339415,130.778846 C297.620276,138.951964 303.589275,145.3269 311.24659,149.903846 C318.903905,154.480792 327.79711,156.878204 337.926472,157.096154 C346.488195,157.096154 354.416713,155.652258 361.712266,152.764423 C369.007818,149.876588 375.127549,145.136251 380.071642,138.543269 C385.015736,131.950288 388.150967,123.096209 389.477431,111.980769 L390.924476,111.980769 Z M437.875901,43 L491.416546,158.895652 L476.041699,158.895652 L434.25829,58.5509703 L437.875901,43 Z M398.986581,147.513043 C398.142468,149.781071 398.021882,151.708866 398.62482,153.296486 C399.227758,154.884106 400.222591,156.103152 401.609349,156.953663 C402.996107,157.804173 404.412991,158.229422 405.860042,158.229422 L407.487967,158.229422 L407.487967,159.930435 L371.130975,159.930435 L371.130975,158.229422 L372.7589,158.229422 C375.532416,158.229422 378.396329,157.407274 381.350727,155.762954 C384.305124,154.118634 386.746987,151.368691 388.676389,147.513043 L398.986581,147.513043 Z M437.875901,43 L439.503826,54.4102611 L394.102806,158.895652 L383.249972,158.895652 L429.555395,59.7893842 L430.550238,57.7518376 C431.213471,56.3934664 431.997278,54.7362784 432.901686,52.7802238 C433.806093,50.8241693 434.589901,48.9224781 435.253133,47.0750933 C435.916365,45.2277084 436.247976,43.8693576 436.247976,43 L437.875901,43 Z M463.38006,115.434783 L463.38006,119.573913 L406.764445,119.573913 L406.764445,115.434783 L463.38006,115.434783 Z M471.519685,147.513043 L486.351891,147.513043 C488.160705,151.368691 490.572422,154.118634 493.587113,155.762954 C496.601804,157.407274 499.495864,158.229422 502.26938,158.229422 L503.716424,158.229422 L503.716424,159.930435 L463.018299,159.930435 L463.018299,158.229422 L464.646224,158.229422 C466.937389,158.229422 468.987348,157.293875 470.796163,155.422752 C472.604977,153.551629 472.846149,150.915086 471.519685,147.513043 Z M511.235888,45.0695652 L511.235888,159.930435 L499.478652,159.930435 L499.478652,45.0695652 L511.235888,45.0695652 Z M560.073639,154.756522 L560.073639,159.930435 L510.693246,159.930435 L510.693246,154.756522 L560.073639,154.756522 Z M571.107353,133.026087 L560.61628,159.930435 L530.590108,159.930435 L537.101808,154.782072 C543.492953,154.782072 548.70829,153.868662 552.747976,152.041814 C556.787662,150.214967 560.073626,147.640811 562.605967,144.31927 C565.138307,140.997729 567.369145,137.233372 569.298547,133.026087 L571.107353,133.026087 Z M500.021293,147.513043 L500.021293,159.930435 L485.550849,159.930435 L485.550849,158.229422 L487.902296,158.229422 C491.037575,158.229422 493.720609,157.180475 495.951481,155.082549 C498.182352,152.984623 499.358064,150.46148 499.478652,147.513043 L500.021293,147.513043 Z M500.021293,57.4869565 L499.478652,57.4869565 C499.358064,54.5385201 498.182352,52.0153768 495.951481,49.9174509 C493.720609,47.8195249 491.037575,46.7705777 487.902296,46.7705777 L485.550849,46.7705777 L485.550849,45.0695652 L500.021293,45.0695652 L500.021293,57.4869565 Z M510.693246,57.4869565 L510.693246,45.0695652 L525.163691,45.0695652 L525.163691,46.7705777 L522.812244,46.7705777 C519.676965,46.7705777 516.99393,47.8195249 514.763059,49.9174509 C512.532187,52.0153768 511.356476,54.5385201 511.235888,57.4869565 L510.693246,57.4869565 Z M611.159477,43 L664.700122,158.895652 L649.325275,158.895652 L607.541866,58.5509703 L611.159477,43 Z M572.270157,147.513043 C571.426043,149.781071 571.305457,151.708866 571.908396,153.296486 C572.511334,154.884106 573.506167,156.103152 574.892925,156.953663 C576.279683,157.804173 577.696566,158.229422 579.143618,158.229422 L580.771543,158.229422 L580.771543,159.930435 L544.414551,159.930435 L544.414551,158.229422 L546.042476,158.229422 C548.815992,158.229422 551.679905,157.407274 554.634302,155.762954 C557.5887,154.118634 560.030563,151.368691 561.959965,147.513043 L572.270157,147.513043 Z M611.159477,43 L612.787402,54.4102611 L567.386382,158.895652 L556.533548,158.895652 L602.838971,59.7893842 L603.833814,57.7518376 C604.497046,56.3934664 605.280854,54.7362784 606.185261,52.7802238 C607.089669,50.8241693 607.873477,48.9224781 608.536709,47.0750933 C609.199941,45.2277084 609.531552,43.8693576 609.531552,43 L611.159477,43 Z M636.663635,115.434783 L636.663635,119.573913 L580.048021,119.573913 L580.048021,115.434783 L636.663635,115.434783 Z M644.803261,147.513043 L659.635466,147.513043 C661.444281,151.368691 663.855998,154.118634 666.870689,155.762954 C669.88538,157.407274 672.77944,158.229422 675.552956,158.229422 L677,158.229422 L677,159.930435 L636.301874,159.930435 L636.301874,158.229422 L637.929799,158.229422 C640.220965,158.229422 642.270924,157.293875 644.079738,155.422752 C645.888553,153.551629 646.129725,150.915086 644.803261,147.513043 Z" id="SCALA" fill="#656B3F" fill-rule="nonzero"></path>
        <g id="beeldmerk" stroke="#656B3F" stroke-width="1.74174006">
            <path d="M41.0626632,116.046586 L41.0626632,117.011551 C41.2341789,116.707508 41.4109118,116.409027 41.5986381,116.110547 L41.5986381,115.215104 C41.4167812,115.486703 41.2341789,115.763864 41.0626632,116.046586 L41.0626632,116.046586 Z M41.5609997,130.454314 C41.5024924,130.854761 41.4751953,131.25428 41.4537674,131.659361 C41.443333,131.942084 41.3147661,132.145088 41.084091,132.304525 C41.078967,132.310087 41.0678804,132.315648 41.0626632,132.320283 L41.0626632,132.864408 C41.2503895,132.752246 41.4323396,132.618764 41.5986381,132.475085 L41.5986381,130.214232 C41.5824275,130.29395 41.5719931,130.374596 41.5609997,130.454314 L41.5609997,130.454314 Z M41.0626632,156.656672 L41.0626632,157.467761 C41.2608239,157.749557 41.4375568,158.048964 41.5986381,158.358569 L41.5986381,157.398239 C41.4375568,157.142398 41.2556067,156.897681 41.0626632,156.656672 L41.0626632,156.656672 Z M41.0634722,161.781829 L41.0634722,164.143722 C41.0690722,164.122402 41.0690722,164.101081 41.0690722,164.079761 C41.1673722,163.306677 41.1610722,162.538228 41.0634722,161.781829 L41.0634722,161.781829 Z M41.464854,149.122347 C41.3303246,148.930466 41.1965405,148.744147 41.0626632,148.552267 L41.0626632,149.378188 C41.2503895,149.666472 41.4323396,149.959391 41.5986381,150.258799 L41.5986381,149.298469 C41.5446959,149.228947 41.5024924,149.17611 41.464854,149.122347 L41.464854,149.122347 Z M41.0626632,122.797631 L41.0626632,124.082396 C41.1321638,123.900712 41.2075339,123.714393 41.2822517,123.532709 C41.3842668,123.28243 41.491499,123.032151 41.5986381,122.780945 L41.5986381,121.58146 C41.4109118,121.986541 41.2341789,122.392549 41.0626632,122.797631 L41.0626632,122.797631 Z M41.3517524,70.76991 C41.3036796,69.2503457 41.2289617,67.7306887 41.0626632,66.2219698 L41.0626632,81.877014 C41.2393961,78.1820616 41.469978,74.4814549 41.3517524,70.76991 L41.3517524,70.76991 Z M41.0626632,175.523074 L41.0626632,176.834721 C41.2341789,177.208285 41.4109118,177.576288 41.5986381,177.938729 L41.5986381,176.824524 C41.4167812,176.412954 41.2393961,175.976357 41.0626632,175.523074 L41.0626632,175.523074 Z M41.5986381,181.515865 L41.1965405,180.48694 C41.1484676,180.354385 41.1055188,180.215341 41.0626632,180.076297 L41.0626632,182.097069 C41.2393961,182.065552 41.4219052,182.028474 41.5986381,181.980272 L41.5986381,181.515865 Z M150.326366,18.641707 C139.683262,8.05193894 125.572578,1.51446604 110.593602,0.229422418 C108.814162,0.0749910044 106.9546,0 105.06243,0 C78.9046549,0 55.6343245,15.5706909 45.773336,39.672466 C43.4579205,45.3353529 41.9845252,51.2381367 41.3790496,57.2954447 C41.3517524,57.5565692 41.3303246,57.8183425 41.3088968,58.0794669 C41.4862818,58.3516221 41.6414938,58.6340666 41.775371,58.9275419 C41.7967988,58.6496395 41.8182267,58.3729422 41.8507411,58.0956887 C42.39184,51.8302783 43.876322,45.7192994 46.2715793,39.8695376 C56.0468565,15.9759575 79.1235913,0.533279664 105.06243,0.533279664 C106.93783,0.533279664 108.781554,0.608177973 110.545157,0.762702082 C125.401156,2.03736376 139.393521,8.52125842 149.946255,19.0204625 C161.929995,30.9649815 168.526968,46.8227517 168.526968,63.6784862 L168.526968,202.466998 L41.5986381,202.466998 C41.5824275,202.477195 41.5719931,202.488318 41.5557825,202.498515 C41.5291375,202.258433 41.4966231,202.109192 41.491499,201.959952 C41.4375568,198.952896 41.3842668,195.94584 41.3303246,192.937857 C41.2874689,190.740964 41.2393961,188.539435 41.2127511,186.33698 C41.2075339,186.112656 41.1646782,185.936534 41.0626632,185.787293 L41.0626632,203 L169.062663,203 L169.062663,63.6784862 C169.062663,46.6792584 162.406065,30.687728 150.326366,18.641707 L150.326366,18.641707 Z M41.0626632,165.88177 L41.0626632,167.332461 C41.2341789,167.188783 41.4004774,167.039542 41.5719931,166.894937 C41.5824275,166.889375 41.5876447,166.879178 41.5986381,166.868055 L41.5986381,165.002086 C41.443333,165.300567 41.2608239,165.593486 41.0626632,165.88177 L41.0626632,165.88177 Z" id="Shape" fill="#656B3F" fill-rule="nonzero"></path>
            <path d="M41.7141623,82.358344 L41.0626632,82.3425583 L41.0626632,66.6601363 L41.7128544,66.6245721 C41.8952069,68.2808613 41.964243,69.9430004 42.0046932,71.206319 C42.1075467,74.4458189 41.9440647,77.722833 41.786468,80.892133 L41.7141623,82.358344 Z M41.0626632,118.774977 L41.0626632,116.48141 L41.1095592,116.404339 C41.2841579,116.116483 41.4698735,115.835126 41.6554956,115.558412 L42.2521582,114.667914 L42.2521582,116.72841 L42.2026465,116.807338 C42.0170244,117.101695 41.8424256,117.39698 41.6730583,117.696908 L41.0626632,118.774977 Z M41.0626632,126.370674 L41.0887269,123.207967 C41.2620178,122.799396 41.4405401,122.389897 41.6307398,121.97947 L42.2521582,120.640473 L42.2260945,123.444752 C42.1193174,123.693609 42.0124469,123.943394 41.9108078,124.19225 C41.8359797,124.373321 41.7617122,124.557178 41.6925827,124.73732 L41.0626632,126.370674 Z M41.0626632,133.990514 L41.0626632,132.73416 L41.2203532,132.595803 C41.3818735,132.482517 41.4489478,132.368303 41.456141,132.199304 C41.4763193,131.800948 41.5043448,131.380306 41.5656272,130.960592 C41.5773045,130.874235 41.5897291,130.78695 41.6066379,130.699664 L42.2521582,130.763736 L42.2521582,133.176159 L42.1401497,133.27273 C41.9551815,133.433372 41.7584426,133.576372 41.5564722,133.696158 L41.0626632,133.990514 Z M42.2521582,152.095759 L41.6412026,150.999119 C41.4782811,150.707548 41.2998522,150.419691 41.1154445,150.138335 L41.0626632,150.057549 L41.0626632,148.101054 L42.058035,149.518051 C42.0840987,149.556122 42.113432,149.593265 42.1479968,149.636908 L42.216379,149.724193 L42.2521582,149.881121 L42.2521582,152.095759 Z M42.2521582,160.286669 L41.637279,159.105529 C41.4711813,158.78703 41.3024679,158.506602 41.1219838,158.250317 L41.0626632,158.166746 L41.0626632,156.330964 L41.643071,157.050605 C41.8658736,157.327319 42.0496274,157.57989 42.2026465,157.823175 L42.2521582,157.901175 L42.2521582,160.286669 Z M41.0626632,168.642865 L41.0626632,162.385236 L41.7122005,162.347165 C41.8086082,163.144806 41.809916,163.945233 41.7173385,164.726159 L41.7043534,164.832016 L41.4633342,165.776371 C41.525831,165.669586 41.5831899,165.565586 41.637279,165.463443 L42.2521582,164.281375 L42.2521582,167.618653 L41.5987907,168.193437 L41.0626632,168.642865 Z M42.2521582,179.905483 L41.6366251,178.718771 C41.4457716,178.351057 41.2665953,177.977773 41.0926505,177.599845 L41.0626632,177.465202 L41.0626632,174.424138 L41.6925827,176.033348 C41.8678354,176.482776 42.043742,176.916418 42.2242261,177.323131 L42.2521582,177.454059 L42.2521582,179.905483 Z M41.0626632,183.124832 L41.0626632,178.572986 L41.6997759,180.616767 C41.745364,180.763481 41.7851602,180.890695 41.8300944,181.014194 L42.2521582,182.154478 L42.2521582,182.86669 L42.0117929,182.93169 C41.824863,182.981833 41.6333555,183.021761 41.4464255,183.056118 L41.0626632,183.124832 Z M170.062663,204 L41.0626632,204 L41.0626632,185.380327 L41.6581113,186.251325 C41.79226,186.448182 41.8581199,186.678467 41.8645657,186.97561 C41.8867059,188.744534 41.9219246,190.510673 41.9571433,192.273098 L42.1447272,202.628503 C42.1466889,202.686074 42.1544427,202.74736 42.1642516,202.81886 L168.874383,202.81886 L168.874383,64.1122349 C168.874383,47.3139511 162.291196,31.507658 150.338327,19.6052561 C139.811955,9.14213666 125.85246,2.68003685 111.032584,1.40966113 C109.300609,1.25811861 107.461203,1.18104735 105.562943,1.18104735 C79.6870131,1.18104735 56.6662257,16.5691129 46.9137305,40.3844095 C44.525679,46.210625 43.0417295,52.3211685 42.5029863,58.5475974 C42.4710372,58.8305325 42.449551,59.1038104 42.4280648,59.3776455 L42.3303493,60.6325141 L41.8073003,59.4871238 C41.6795975,59.2086459 41.5304085,58.9367608 41.362349,58.6796399 L41.3024679,58.5870616 L41.3108756,58.4770261 C41.3330157,58.2134981 41.3551558,57.9493201 41.3818735,57.6856993 C41.9903067,51.6069129 43.4801415,45.6369549 45.8109277,39.9427819 C55.7476437,15.6780577 79.2021722,0 105.562943,0 C107.49857,0 109.374409,0.0777212544 111.137212,0.230563769 C126.234541,1.52489658 140.455607,8.10808183 151.18096,18.7686151 C163.357099,30.8990736 170.062663,47.001859 170.062663,64.1122349 L170.062663,204 Z" id="Shape" fill="#656B3F" fill-rule="nonzero" opacity="0"></path>
            <path d="M147.587756,123.519774 L168.537571,123.519774 L168.537571,138.480226 L147.587756,138.480226 L147.587756,123.519774 Z M147.062663,139 L169.062663,139 L169.062663,123 L147.062663,123 L147.062663,139 Z" id="Shape" fill="#656B3F" fill-rule="nonzero"></path>
            <path d="M147.587756,123.519774 L168.537571,123.519774 L168.537571,138.480226 L147.587756,138.480226 L147.587756,123.519774 Z M147.062663,139 L169.062663,139 L169.062663,123 L147.062663,123 L147.062663,139 Z" id="Shape"></path>
            <path d="M128.597494,140.51887 L168.527832,140.51887 L168.527832,155.479322 L128.597494,155.479322 L128.597494,140.51887 Z M128.062663,156 L169.062663,156 L169.062663,140 L128.062663,140 L128.062663,156 Z" id="Shape" fill="#656B3F" fill-rule="nonzero"></path>
            <path d="M128.597494,140.51887 L168.527832,140.51887 L168.527832,155.479322 L128.597494,155.479322 L128.597494,140.51887 Z M128.062663,156 L169.062663,156 L169.062663,140 L128.062663,140 L128.062663,156 Z" id="Shape"></path>
            <path d="M168.52856,170.480402 L108.595839,170.480402 L108.595839,155.520502 L168.52856,155.520502 L168.52856,170.480402 Z M108.062663,171 L169.062663,171 L169.062663,155 L108.062663,155 L108.062663,171 Z" id="Shape" fill="#656B3F" fill-rule="nonzero"></path>
            <path d="M168.52856,170.480402 L108.595839,170.480402 L108.595839,155.520502 L168.52856,155.520502 L168.52856,170.480402 Z M108.062663,171 L169.062663,171 L169.062663,155 L108.062663,155 L108.062663,171 Z" id="Shape"></path>
            <path d="M168.524358,186.480226 L87.6000341,186.480226 L87.6000341,171.519774 L168.524358,171.519774 L168.524358,186.480226 Z M87.0626632,187 L169.062663,187 L169.062663,171 L87.0626632,171 L87.0626632,187 Z" id="Shape" fill="#656B3F" fill-rule="nonzero"></path>
            <path d="M168.524358,186.480226 L87.6000341,186.480226 L87.6000341,171.519774 L168.524358,171.519774 L168.524358,186.480226 Z M87.0626632,187 L169.062663,187 L169.062663,171 L87.0626632,171 L87.0626632,187 Z" id="Shape"></path>
            <path d="M125.562663,66.4613238 C116.206357,66.4613238 108.601082,58.8508491 108.601082,49.5002809 C108.601082,40.1439074 116.206357,32.5386762 125.562663,32.5386762 C134.913351,32.5386762 142.524245,40.1439074 142.524245,49.5002809 C142.524245,58.8508491 134.913351,66.4613238 125.562663,66.4613238 M125.562663,32 C115.910461,32 108.062663,39.8481177 108.062663,49.5002809 C108.062663,59.1466388 115.910461,67 125.562663,67 C135.214865,67 143.062663,59.1466388 143.062663,49.5002809 C143.062663,39.8481177 135.214865,32 125.562663,32" id="Shape" fill="#656B3F" fill-rule="nonzero"></path>
            <path d="M125.562663,66.4613238 C116.206357,66.4613238 108.601082,58.8508491 108.601082,49.5002809 C108.601082,40.1439074 116.206357,32.5386762 125.562663,32.5386762 C134.913351,32.5386762 142.524245,40.1439074 142.524245,49.5002809 C142.524245,58.8508491 134.913351,66.4613238 125.562663,66.4613238 Z M125.562663,32 C115.910461,32 108.062663,39.8481177 108.062663,49.5002809 C108.062663,59.1466388 115.910461,67 125.562663,67 C135.214865,67 143.062663,59.1466388 143.062663,49.5002809 C143.062663,39.8481177 135.214865,32 125.562663,32 Z" id="Shape"></path>
            <path d="M168.527652,202.480226 L68.5967451,202.480226 L68.5967451,187.519774 L168.527652,187.519774 L168.527652,202.480226 Z M68.0626632,203 L169.062663,203 L169.062663,187 L68.0626632,187 L68.0626632,203 Z" id="Shape" fill="#656B3F" fill-rule="nonzero"></path>
            <path d="M168.527652,202.480226 L68.5967451,202.480226 L68.5967451,187.519774 L168.527652,187.519774 L168.527652,202.480226 Z M68.0626632,203 L169.062663,203 L169.062663,187 L68.0626632,187 L68.0626632,203 Z" id="Shape"></path>
            <path d="M41.0654632,163.9655 C41.0654632,163.9885 41.0654632,164.0115 41.0598632,164.0345 L41.0598632,163.9655 L41.0654632,163.9655 Z" id="Path" fill="#656B3F" fill-rule="nonzero"></path>
            <polygon id="Path" fill="#656B3F" fill-rule="nonzero" points="40.0626632 167 40.0626632 164.064506 40.5587508 164 41.0546962 164 41.0626632 164.366469 41.0397581 164.471175"></polygon>
            <path d="M40.9956883,180.831659 C41.0385671,180.9449 41.0815392,181.0589 41.1296381,181.168341 L41.0223478,181.168341 L40.9956883,180.95022 L40.9956883,180.831659 Z" id="Path" fill="#656B3F" fill-rule="nonzero"></path>
            <path d="M42.0626632,181 L41.1254099,181 L41.0626632,180.232558 L41.0626632,178 L41.758443,180.152132 C41.801556,180.285853 41.8445679,180.418605 41.8932471,180.547481 L42.0626632,181 Z" id="Path" fill="#656B3F" fill-rule="nonzero"></path>
            <path d="M42.0626632,177.101351 L42.0626632,178 C42.0429579,177.987237 42.0245774,177.96997 42.0153044,177.956456 C41.6816398,177.662913 41.367515,177.364865 41.0626632,177.063063 L41.0626632,176 C41.376788,176.367868 41.6909129,176.721471 42.0153044,177.054054 C42.0338505,177.071321 42.0429579,177.084084 42.0626632,177.101351" id="Path" fill="#656B3F" fill-rule="nonzero"></path>
            <path d="M42.0626632,179 L41.5187038,178.011924 C41.3777569,177.707698 41.2298934,177.356128 41.0867948,176.998422 L41.0626632,176.871296 L41.0626632,174 L41.5803392,175.520252 C41.7250517,175.943714 41.8692264,176.353147 42.0181658,176.738033 L42.0626632,176.916009 L42.0626632,179 Z" id="Path" fill="#656B3F" fill-rule="nonzero"></path>
            <path d="M42.0626632,165 L42.0626632,166.592362 C42.0429579,166.600935 42.0338505,166.604832 42.0153044,166.610288 C41.9957647,166.618862 41.9864916,166.628215 41.9667864,166.632112 C41.6630937,166.753702 41.367515,166.87841 41.0626632,167 L41.0626632,165.780203 C41.4148738,165.538581 41.7382717,165.291504 42.0153044,165.04053 C42.0338505,165.0265 42.0533901,165.01403 42.0626632,165" id="Path" fill="#656B3F" fill-rule="nonzero"></path>
            <path d="M41.6724796,166.57232 C41.6340796,166.59032 41.6089796,166.61532 41.6040796,166.62032 L41.6047796,166.62032 L41.6724796,166.57232 Z M41.0626632,168 L41.0626632,165.781948 L41.109825,165.700476 C41.2806523,165.403881 41.4193726,165.131088 41.5351265,164.865617 L42.0567488,163 L42.0626632,166.96375 L41.9469861,167.101977 C41.938921,167.110216 41.9277066,167.123032 41.9132662,167.135848 L41.0626632,168 Z" id="Shape" fill="#656B3F" fill-rule="nonzero"></path>
            <path d="M91.1051965,127.739122 C90.2213999,127.146047 89.3468675,126.542763 88.4778935,125.9237 C86.7621794,124.690216 84.9881014,123.569035 83.0315203,122.752281 C80.6497164,121.753613 78.1873147,121.150329 75.5924361,121.167035 C75.1181134,121.171676 74.6437907,121.204161 74.180585,121.262633 C73.8229901,121.310895 73.5404346,121.219939 73.2476886,121.027816 C71.2068041,119.714512 69.0010183,118.742761 66.7192668,117.936216 C63.7409465,116.890214 60.6763773,116.222888 57.5271341,115.976934 C56.5619986,115.902684 55.5923237,115.86463 54.5690096,115.800589 C54.7660573,115.464606 55.0968789,115.272484 55.3313536,114.994973 C55.5762042,114.706324 55.8430107,114.434382 56.0774854,114.135525 C56.3061238,113.841308 56.5251274,113.526672 56.7273631,113.206467 C56.9301545,112.890903 57.1110827,112.55492 57.3403696,112.165105 C57.6866622,112.111274 58.0814061,112.047233 58.470221,111.988761 C60.2125231,111.737237 61.9605689,111.689903 63.7087074,111.722387 C69.3891847,111.833763 74.8299994,113.024553 79.973436,115.443259 C83.5382674,117.12503 86.5546632,119.533527 89.0541214,122.586146 C90.4020502,124.230792 91.4146179,126.073129 92.2734014,128.005495 C92.3095314,128.090883 92.3262068,128.18184 92.4114367,128.464919 C91.8778237,128.17163 91.4729818,127.984148 91.1051965,127.739122 M91.6434415,129.042216 C89.278313,129.665919 86.8900242,129.756876 84.4711638,129.420893 C81.8596098,129.063563 79.3175367,128.417585 76.807888,127.648165 C73.5089366,126.633719 70.2211023,125.603495 66.9860733,124.391358 C66.7887477,124.316179 66.591422,124.241929 66.267178,124.113847 C68.0468145,123.489216 69.6819308,122.8915 71.3346489,122.351329 C73.2263811,121.737835 75.1709189,121.524365 77.1488074,121.710919 C79.2165578,121.903042 81.1879615,122.47477 83.0852522,123.302662 C84.6091991,123.964418 86.0321672,124.808088 87.3958449,125.752924 C88.2490699,126.35064 89.0967364,126.959493 89.9601519,127.535861 C90.5298949,127.914538 91.1320624,128.257018 91.7184809,128.609707 C91.8352087,128.683958 91.952863,128.747999 92.1659376,128.870512 C91.9315555,128.951259 91.7925938,129.004163 91.6434415,129.042216 M64.3269018,123.452091 C62.2377513,122.746712 60.1058931,122.213038 57.9263248,121.881695 C56.3061238,121.64131 54.6866638,121.577269 53.0503432,121.790738 C51.0464225,122.05804 49.4372458,123.025151 48.2059523,124.599259 C47.7001316,125.246165 47.2414653,125.949688 46.863582,126.681982 C45.9947007,128.363753 45.1955781,130.082649 44.33698,131.775558 C43.9216697,132.597881 43.4688398,133.403497 42.9836781,134.188695 C42.6800004,134.690813 42.3389883,135.181794 41.811119,135.501999 C41.5766443,135.645859 41.5876686,135.891813 41.5876686,136.132199 C41.5979518,137.626488 41.5979518,139.121705 41.6031397,140.616922 C41.6089761,143.290863 41.614164,145.97223 41.6192592,148.65174 L41.6192592,149.436938 C41.5340294,149.330203 41.470107,149.255025 41.4171162,149.190984 C41.363477,149.121374 41.3208621,149.068471 41.2833424,149.014639 C41.1503097,148.822516 41.0171844,148.635962 40.8841517,148.443839 C40.3085722,147.627085 39.743276,146.804762 39.1522254,146.003786 C38.9125628,145.678013 38.8001891,145.362449 38.8059328,144.962425 C38.842804,141.951572 38.8641114,138.939791 38.8964432,135.928938 C38.8964432,135.672775 38.9338702,135.416611 38.9493413,135.133531 C37.2710543,134.09217 36.5623495,132.410399 36.0823757,130.584768 C35.8214056,129.597237 35.7413636,128.577223 35.6935608,127.562777 C35.6451094,126.495428 35.6451094,125.427151 35.6295457,124.358873 C35.5973066,120.915512 35.3259607,117.499067 34.4945064,114.140165 C34.1483064,112.741474 33.7432793,111.35392 33.3537233,109.959869 C32.9273887,108.448874 32.6986577,106.906322 32.5281053,105.352633 C32.2025644,102.399324 32.1443857,99.4367344 32.2884427,96.4741443 C32.3466213,95.176619 32.4854904,93.8790937 32.5810961,92.5815683 C32.6502064,91.6580793 32.7090335,90.7336621 32.7890755,89.8157418 C33.1890073,85.2298529 33.8065532,80.6755204 35.1017691,76.249641 C35.7361757,74.071135 36.5462299,71.9412629 37.2975496,69.7944989 C37.9745711,67.8728991 38.6509442,65.9507425 39.0933983,63.9593474 C39.2852581,63.083657 39.4021712,62.1918172 39.5727236,61.2255413 C39.642575,61.4869955 39.7167806,61.6954534 39.7594882,61.9038185 C40.254933,64.4182147 40.5960377,66.9546076 40.6386527,69.5226497 C40.6761723,71.4869434 40.7400947,73.4569915 40.6974798,75.4218421 C40.6547722,77.5039155 40.4894078,79.5868242 40.3828704,81.6686192 C40.361563,82.1438216 40.3563751,82.6134552 40.3298797,83.0886576 C40.2232497,85.3152408 40.1432078,87.5408959 39.9939629,89.7628384 C39.8130347,92.5277368 39.5676283,95.2879946 39.3705806,98.0538211 C39.2317115,99.8961586 39.1361059,101.743137 39.0029805,103.585474 C38.778789,106.804228 38.5979534,110.018341 38.6457563,113.243592 C38.6722516,115.379218 38.7736937,117.509276 38.8272403,119.644903 C38.8324282,119.896426 38.8001891,120.162799 38.7096787,120.397616 C38.1392871,121.91418 37.7290721,123.467869 37.5533318,125.08003 C37.324045,127.199878 37.4305823,129.292811 38.1929263,131.310565 C38.3795982,131.795977 38.6031413,132.272107 38.8589235,132.720394 C39.146389,133.23829 39.4183834,133.323678 39.9835871,133.147334 C40.3033843,133.046168 40.6069694,132.912517 40.8841517,132.736172 C41.0708236,132.623868 41.2517518,132.491146 41.4171162,132.346358 C41.4649191,132.303664 41.5127219,132.255401 41.5605247,132.212707 C42.1309163,131.663254 42.578651,131.021917 42.8931677,130.301688 C43.3835173,129.148951 43.8576547,127.984148 44.3002014,126.810064 C44.7478435,125.640621 45.1154435,124.434052 45.5844857,123.270177 C45.9784885,122.287288 46.4527185,121.326674 46.921668,120.371628 C47.2899166,119.618915 47.8544717,119.014703 48.477854,118.454112 C48.9733915,118.000257 49.5599953,117.76544 50.1884729,117.675411 C51.3022047,117.503707 52.3416384,117.162156 53.3170571,116.601565 C53.5568124,116.462346 53.8442779,116.382527 54.1161796,116.355611 C54.6330246,116.302708 55.1608012,116.27672 55.6775536,116.302708 C59.2803679,116.49483 62.8133307,117.108324 66.2393857,118.277768 C68.2969456,118.983146 70.2905831,119.853732 72.181389,120.942428 C72.4009485,121.064941 72.6455211,121.161467 72.8530373,121.470534 C71.2169946,121.796307 69.7625286,122.346688 68.3025041,122.896141 C67.5511844,123.179221 66.7943062,123.446522 65.994813,123.584813 C65.413953,123.686907 64.8650542,123.633076 64.3269018,123.452091 M43.3938931,134.577582 C44.5075323,132.741741 45.344823,130.782459 46.2879099,128.881649 C46.7673279,127.904329 47.273797,126.943715 47.8118568,125.998879 C48.4036485,124.957517 49.1865588,124.076722 50.1781897,123.39269 C51.2705215,122.635337 52.4908833,122.2613 53.8339021,122.208397 C53.6737255,122.827459 52.8370833,124.098069 50.8441869,126.772939 C49.7673262,128.214324 48.6535943,129.623225 47.4229493,130.936529 C46.1813726,132.26097 44.8861567,133.526011 43.3938931,134.577582 M58.6569856,123.206136 C56.8979154,125.522748 54.8571236,127.546999 52.5386862,129.308589 C50.2576758,131.043264 47.8971793,132.661922 45.3867895,134.043907 C45.1419389,134.183126 44.8809688,134.300071 44.6251866,134.423512 C44.6141623,134.428153 44.5876669,134.406806 44.5346762,134.375249 C48.6220037,130.921679 51.7021366,126.655066 54.6065292,122.148997 C55.7952078,122.073818 57.8946415,122.293785 59.0672006,122.62884 C58.9231436,122.8321 58.7952062,123.025151 58.6569856,123.206136 M43.1012397,153.723969 C43.7776127,155.539391 44.1561444,157.407716 44.0385828,159.361429 C43.8951743,161.700316 43.0476005,163.771902 41.6619668,165.645796 C41.7310771,165.496367 41.7949995,165.3358 41.8699462,165.186371 C43.2607677,162.458598 42.9519948,159.655646 41.4171162,157.300981 C41.256847,157.044817 41.0760115,156.798863 40.8841517,156.558478 C40.7775217,156.425755 40.6709844,156.292104 40.5534228,156.158454 C40.0630732,155.597863 39.4661863,155.170924 38.8163086,154.813594 C37.6063226,154.146268 36.3272262,153.665497 34.9635485,153.429752 C33.1353681,153.109547 31.4143735,152.45336 29.73025,151.695078 C29.3627426,151.528943 29.0003304,151.358167 28.6430135,151.18275 C25.546761,149.660617 23.3458852,147.263258 21.8536216,144.182796 C20.6810626,141.769659 19.9775457,139.222871 19.6261578,136.574917 C19.2372503,133.632745 19.0666979,130.680365 19.2159428,127.712206 C19.3438802,125.182124 19.6313457,122.661324 20.090012,120.162799 C20.2230447,119.431433 20.3561701,118.700067 20.4840149,117.963132 C20.5215345,117.963132 20.5532178,117.963132 20.5854569,117.957563 C20.6280718,118.085645 20.6810626,118.213727 20.70237,118.341808 C21.1875317,121.305327 22.3121953,124.034028 23.7670319,126.633719 C24.848432,128.577223 26.1811676,130.371298 27.4705471,132.186719 C29.8956145,135.608734 32.5655324,138.838625 35.2775094,142.041601 C36.7109459,143.740078 38.123816,145.464543 39.4720227,147.237271 C39.9726554,147.893459 40.4467928,148.571921 40.8841517,149.271731 C41.0708236,149.559451 41.2517518,149.85274 41.4171162,150.152526 C42.0779255,151.289485 42.6425734,152.480276 43.1012397,153.723969 M42.6903762,179.014576 C42.3124929,178.577427 41.8751341,177.78202 41.4436116,176.80934 C41.4325873,176.787993 41.4273994,176.772215 41.4171162,176.750868 C41.2355396,176.339706 41.059892,175.902557 40.8841517,175.448702 C39.9726554,173.051342 39.2103114,170.178781 39.2161478,168.646439 C39.5941237,168.330875 40.0100825,167.989323 40.4254854,167.643131 C40.5805667,167.514121 40.7290704,167.381398 40.8841517,167.246819 C41.0547041,167.103887 41.2200685,166.954458 41.3899724,166.80967 C41.400904,166.80503 41.4060919,166.793892 41.4171162,166.783683 C41.4273994,166.778114 41.4325873,166.772545 41.4436116,166.761407 C41.5553368,166.660241 41.6728984,166.543297 41.8060238,166.419856 C42.0456864,167.621784 42.7969135,178.374166 42.6903762,179.014576 M43.4578155,179.40439 C43.9642846,178.144918 44.278894,176.830687 44.582479,175.517383 C45.3286108,172.308839 46.0262913,169.090085 46.9966147,165.944653 C48.2059523,162.02609 49.5063561,158.139082 51.2970168,154.439557 C53.5192927,149.842531 56.3862584,145.678013 59.9780483,142.041601 C61.8223483,140.178844 63.8895429,138.598239 66.0902334,137.199548 C67.246395,136.462613 68.4516563,135.800856 69.6346838,135.106615 C69.7671606,135.032365 69.9163129,134.978534 70.1997948,134.844883 C70.07195,135.063922 70.0395256,135.1391 69.9867202,135.20871 C69.0751313,136.425488 68.376617,137.771276 67.7373931,139.14862 C66.2032556,142.431415 64.6680065,145.715138 62.8237065,148.839223 C60.9747745,151.982798 59.0613642,155.091104 57.1647219,158.203123 C54.1750068,163.099008 51.3235122,168.064502 48.7763438,173.20634 C47.7427465,175.282566 46.8421819,177.423762 45.9041903,179.54361 C45.3713184,180.739041 44.7956463,181.902916 44.0385828,182.971193 C43.9003622,183.163316 43.7828006,183.371217 43.6548632,183.568908 C43.3989883,183.953154 43.292451,184.369884 43.292451,184.839518 C43.3033827,187.493041 43.292451,190.152132 43.2872631,192.805655 C43.2872631,195.176099 43.2659556,197.546542 43.2769799,199.916985 C43.2820752,200.423744 43.1490425,200.840474 42.8131257,201.208942 C42.4131939,201.652588 42.0029789,202.073959 41.4223041,202.426648 L41.4171162,202.426648 C41.400904,202.436857 41.3899724,202.447995 41.3745013,202.458204 C41.3480059,202.217819 41.3156742,202.06839 41.3104863,201.918961 C41.256847,198.908108 41.2039489,195.897255 41.1503097,192.885474 C41.1076948,190.685807 41.059892,188.480571 41.0333966,186.275335 C41.0275602,186.051655 40.9849453,185.875311 40.8841517,185.725882 C40.8202293,185.624716 40.7290704,185.533759 40.6121573,185.448371 C39.130918,184.338328 37.4570777,183.649656 35.698656,183.130831 C33.8336971,182.586947 31.9312184,182.212911 30.0235519,181.86579 C27.8646426,181.475976 25.690818,181.124215 23.5267208,180.754819 C20.6280718,180.25827 18.0382885,179.041492 15.6345286,177.375499 C13.1616584,175.662171 11.0143293,173.606364 9.1705851,171.235921 C7.75845607,169.426068 6.39412987,167.573521 5.01359147,165.736752 C3.98518207,164.375186 2.93027731,163.034967 1.6136613,161.929564 C1.56011472,161.88687 1.53361935,161.818189 1.43801368,161.690107 C2.85014272,161.849745 4.1131195,162.233991 5.34950827,162.703624 C10.4277255,164.63135 15.1074005,167.284873 19.434298,170.557458 C21.6830692,172.255007 23.8787571,174.023094 26.0849134,175.774475 C27.5719892,176.948559 29.0371089,178.149559 30.6521221,179.148227 C32.9913111,180.589612 35.5017009,181.598489 38.2142338,182.057913 C39.1096105,182.212911 39.9991508,182.197133 40.8841517,182.030997 C41.059892,181.999441 41.2407275,181.962316 41.4171162,181.914053 C41.4273994,181.914053 41.4384237,181.914053 41.4487995,181.908484 C41.8589219,181.807318 42.1845555,181.598489 42.434594,181.262506 C42.8609285,180.690778 43.1968453,180.066147 43.4578155,179.40439 M73.6423399,132.158876 C73.599725,132.282317 73.572859,132.410399 73.5191272,132.528271 C72.3629656,135.021228 71.7135512,137.658972 71.280917,140.360758 C70.9242486,142.602191 70.5935197,144.85569 70.1303139,147.082273 C69.4484751,150.354859 68.4729638,153.553193 67.3807246,156.707906 C66.2291952,160.018545 64.4651224,163.023829 62.6001634,165.966 C62.3979278,166.287133 62.1847605,166.601769 61.9657568,166.911764 C61.8165119,167.119665 61.651796,167.311788 61.4916194,167.514121 C61.0277652,167.402745 60.6233866,167.284873 60.2073352,167.215263 C58.2196267,166.873711 56.3384555,167.23661 54.5800339,168.176805 C51.5690113,169.778757 49.6239177,172.21881 48.9307766,175.59813 C48.7337289,176.558745 48.7550364,177.530496 48.9255887,178.49668 C48.9682036,178.731496 49.0160065,178.961672 49.0799289,179.276308 C47.9714775,179.874024 46.8951727,180.46153 45.8079361,181.049036 C45.8079361,181.01748 45.7866287,180.946942 45.8079361,180.894039 C46.6820054,178.923619 47.5398624,176.948559 48.4410755,174.989277 C49.9010074,171.828068 51.6065309,168.791227 53.2957496,165.746962 C55.5121891,161.74301 57.9263248,157.861572 60.3462043,153.985702 C63.2661606,149.293078 65.8669683,144.434319 68.1533518,139.399215 C69.1501706,137.199548 70.4128694,135.187363 72.118393,133.467538 C72.5815987,132.997905 73.0772289,132.559828 73.6423399,132.158876 M65.1957831,173.152509 C65.2274664,173.435588 65.2379349,173.718668 65.2490518,173.878306 C65.1744757,176.494704 64.172469,178.587636 62.4774139,180.360364 C60.9056642,181.999441 59.0031855,183.072359 56.7434826,183.361007 C54.1161796,183.69235 51.8564767,182.965624 50.3061271,180.680569 C49.3732307,179.313434 49.1174485,177.760673 49.3306158,176.126236 C49.8900757,171.806721 53.4979853,168.625092 56.769978,167.8566 C58.2305584,167.50948 59.6795586,167.434301 61.097524,167.941988 C63.5381551,168.806077 64.8759859,170.589942 65.1957831,173.152509 M50.6149001,182.960055 C49.2989325,184.001417 47.9714775,185.026072 46.6658858,186.083212 C45.7065867,186.862841 44.8434491,187.738995 44.0495145,188.678262 C43.9959679,188.747872 43.9164818,188.790566 43.7885444,188.897301 C43.7885444,188.229976 43.7672369,187.648038 43.7989202,187.070742 C43.8098518,186.873978 43.9319529,186.666077 44.0495145,186.488804 C44.5611715,185.720313 45.1154435,184.988947 45.7918166,184.354106 C46.9488119,183.264482 48.174269,182.265814 49.5172877,181.411935 C49.655601,181.326547 49.799658,181.2458 49.9650224,181.150202 C50.4074765,181.619836 50.7905477,182.030997 51.211787,182.484853 C51.0038076,182.645419 50.8119478,182.805058 50.6149001,182.960055 M43.7885444,184.652036 C43.8254155,184.385663 43.9268576,184.102583 44.0657267,183.863126 C44.7582193,182.676976 45.6697155,181.695014 46.8577456,181.000773 C47.6097138,180.557127 48.3978121,180.168241 49.2078663,179.735733 C49.3093084,179.912077 49.3997261,180.066147 49.4850486,180.226713 C49.5599953,180.371502 49.6291056,180.520002 49.7253598,180.712125 C49.548971,180.840207 49.3894429,180.968289 49.2137027,181.075024 C47.9714775,181.860222 46.799567,182.741017 45.7336379,183.756391 C45.0728286,184.391231 44.4759417,185.090113 43.7776127,185.838186 C43.7776127,185.405677 43.7459294,185.026072 43.7885444,184.652036 M14.0253519,163.280921 C17.878112,164.786347 21.2993496,166.991584 24.3580824,169.778757 C26.0797255,171.342656 27.6308163,173.067121 29.1811659,174.791586 C30.1566772,175.885851 31.1475669,176.969906 32.1605053,178.032615 C33.2103148,179.138017 34.4040886,180.066147 35.7522953,180.781735 C35.8104739,180.81886 35.8640205,180.868051 35.9170112,180.915386 C35.6670654,181.03233 35.4589934,180.861554 35.2406382,180.792872 C33.1890073,180.098631 31.2755044,179.111101 29.5435781,177.813576 C27.7690369,176.478926 26.0422059,175.074665 24.29416,173.697321 C21.9711832,171.866121 19.6635848,170.013574 17.2069269,168.363359 C13.5666855,165.913097 9.7248571,163.841511 5.61047839,162.293391 C4.99747191,162.057646 4.36890171,161.855314 3.74551942,161.64178 C7.246799,161.636275 10.7158395,161.993605 14.0253519,163.280921 M36.8336954,169.821451 C37.1483047,169.682232 37.4416066,169.548581 37.7400964,169.426068 C38.0436814,169.297986 38.3524544,169.180113 38.7258909,169.030685 C38.7898132,169.34068 38.842804,169.612622 38.8906068,169.878995 C39.1787208,171.635945 39.6102433,173.3502 40.196847,175.031971 C40.4041779,175.619477 40.6334648,176.195846 40.8841517,176.762005 C41.0547041,177.135113 41.2304443,177.504509 41.4171162,177.867408 C41.4223041,177.882258 41.4325873,177.903605 41.4436116,177.920311 C41.7155134,178.459554 42.0140032,178.983019 42.3227761,179.505557 C42.4294061,179.68747 42.5308481,179.869383 42.6425734,180.072644 C42.3014686,180.584043 42.1147967,181.209603 41.4171162,181.44906 L41.0171844,180.418836 C40.9693816,180.285185 40.9267666,180.146894 40.8841517,180.007675 C39.7381807,176.527188 38.4590843,173.13673 36.8336954,169.821451 M40.8893396,163.99094 C40.9797574,163.21688 40.9745695,162.447461 40.8841517,161.690107 C40.7827096,160.771258 40.5643545,159.863547 40.2394619,158.961405 C39.8285985,157.818878 39.2743265,156.7506 38.5714581,155.76307 C38.4377769,155.576516 38.3098395,155.384393 38.1605946,155.165355 C39.0294759,155.299005 40.0791928,156.185369 40.8841517,157.370591 C41.0811994,157.652742 41.256847,157.952528 41.4171162,158.262524 C41.5928565,158.592938 41.7420087,158.940058 41.8647583,159.287179 C42.578651,161.32628 42.327964,163.168617 41.4436116,164.866167 C41.4384237,164.881945 41.4273994,164.898651 41.4171162,164.914429 C41.2620349,165.213287 41.0811994,165.506576 40.8841517,165.795224 C40.687104,166.088513 40.4732882,166.377162 40.2394619,166.660241 C40.4100143,166.09501 40.6231816,165.544629 40.7400947,164.972901 C40.8040171,164.663834 40.8518199,164.359408 40.8841517,164.054981 C40.8893396,164.033634 40.8893396,164.012287 40.8893396,163.99094 M33.4602606,169.548581 C31.765854,169.191251 30.3272296,168.363359 29.0746286,167.199485 C26.921463,165.192868 25.6268956,162.714762 25.1791609,159.805075 C25.1042142,159.340082 25.1152385,158.860239 25.0829068,158.390606 C25.0726236,157.012333 25.3497133,155.704598 26.0208984,154.492461 C26.6126901,153.429752 27.4544275,152.624136 28.5681594,152.117377 C28.872393,151.978157 29.1333631,151.967948 29.442136,152.106239 C30.6043192,152.629704 31.7819735,153.126254 33.0184549,153.456668 C33.7270671,153.64415 34.4357719,153.814926 35.1554083,153.964355 C36.6902869,154.273422 36.951257,154.412642 37.8835049,155.646126 C39.5676283,157.882919 40.5217395,160.387013 40.4843125,163.221521 C40.4681003,164.326923 40.2394619,165.384063 39.7756077,166.387371 C38.634732,168.876615 36.1360149,170.11474 33.4602606,169.548581 M18.7469933,131.924059 C18.7837718,132.725963 18.8322232,133.526011 18.8748381,134.332555 C18.8374111,134.353902 18.7947961,134.375249 18.7572765,134.396596 C18.432384,133.9381 18.1177746,133.478676 17.7927895,133.019252 C16.6312548,131.395953 15.8851229,129.591669 15.4109855,127.663943 C14.8670894,125.458707 14.942036,123.296165 15.8851229,121.204161 C16.05058,120.835693 16.2424399,120.483004 16.4445828,120.135883 C17.4568727,118.390071 18.9278288,117.055421 20.4200925,115.555563 C20.398785,115.811727 20.4039729,115.939809 20.3774775,116.06325 C19.88194,118.571985 19.3806588,121.081647 19.0718858,123.622867 C18.7411569,126.377556 18.6190559,129.148951 18.7469933,131.924059 M39.2478311,56.5702283 C39.6315507,56.3993596 39.9622796,56.5430341 40.2336256,56.7831413 C40.5107152,57.0290956 40.7724265,57.3118968 40.9797574,57.6219849 C41.0333966,57.7015256 41.0863873,57.7766113 41.1290023,57.8568945 C41.3046499,58.1286509 41.4597312,58.4121945 41.5928565,58.7053907 C41.8273312,59.1862547 42.0191911,59.6826185 42.1845555,60.190027 C42.9145678,62.4164246 43.6548632,64.6427293 44.294365,66.8956714 C45.0618043,69.6294774 45.7336379,72.3897352 46.4423427,75.139041 C46.8312503,76.6767663 47.2414653,78.2087372 47.5721942,79.7576001 C48.0199288,81.8022699 48.1581494,83.8840648 48.1581494,85.9769973 C48.1639858,87.7766408 48.2007644,89.580925 48.0941344,91.3749997 C47.9824092,93.3342815 47.7582176,95.2935633 47.5134597,97.2426357 C47.2201578,99.5703851 46.7937306,101.876787 46.3144053,104.167412 C46.2343633,104.53031 46.1064259,104.834737 45.899095,105.133595 C44.8596613,106.580549 44.1878277,108.181573 43.9532603,109.959869 C43.9112939,110.264296 43.8738669,110.574291 43.88415,110.877789 C43.9003622,111.327004 43.7614005,111.716819 43.5114547,112.074149 C43.132923,112.618961 42.7653229,113.168413 42.3705789,113.702088 C42.0404985,114.151303 41.7207013,114.599589 41.4171162,115.064582 C41.2355396,115.336524 41.0547041,115.614035 40.8841517,115.897115 C40.3938021,116.698091 39.951348,117.525054 39.5676283,118.384502 C39.5146376,118.502375 39.434503,118.614679 39.3705806,118.726982 C39.3117535,118.710276 39.253019,118.695426 39.1948404,118.684288 C39.1948404,118.209086 39.2000283,117.739452 39.1948404,117.26425 C39.146389,114.044568 39.0772787,110.820245 39.2374553,107.599635 C39.3279657,105.752657 39.4661863,103.911248 39.5837479,102.06891 C39.6528582,101.048896 39.700661,100.03445 39.7807956,99.0200041 C39.9461601,96.8685995 40.1380199,94.7227636 40.2975479,92.5759995 C40.3828704,91.4390406 40.4467928,90.3067224 40.50562,89.1697635 C40.6334648,86.7779732 40.7562143,84.3917517 40.8680321,81.9990333 C40.8731274,81.8922984 40.8783153,81.7920604 40.8841517,81.6843974 C41.059892,77.9847795 41.2891788,74.2795929 41.1716172,70.5633615 C41.1238144,69.0417857 41.0488677,67.5202098 40.8841517,66.009029 C40.7724265,64.909381 40.6121573,63.8150232 40.3938021,62.7257702 C40.0476021,61.0333257 39.6373871,59.3571234 39.2691386,57.6698764 C39.189004,57.3118968 39.0184516,56.9437077 39.2478311,56.5702283 M47.47594,117.3385 C47.865496,117.435026 48.2168839,117.520414 48.6535943,117.627149 C48.4565466,117.813703 48.318326,117.9687 48.1581494,118.096782 C47.4707521,118.657373 46.9377876,119.340476 46.5062651,120.114536 C45.7336379,121.503018 45.1523147,122.971319 44.6089744,124.460968 C43.9642846,126.238336 43.292451,128.005495 42.616078,129.772654 C42.4403377,130.226509 42.2162388,130.670155 41.8325191,131.007067 C42.5469677,125.977532 44.1451201,121.321105 47.47594,117.3385 M39.0081684,130.381507 C38.9920489,130.798237 38.9551777,131.209399 38.9280338,131.62056 C38.4274011,130.744406 38.181902,129.815348 38.0540572,128.860303 C37.6386543,125.742715 38.2516608,122.783837 39.4293151,119.911276 C39.8557423,118.859705 40.3402555,117.846187 40.8841517,116.863298 C41.0547041,116.558871 41.2304443,116.260014 41.4171162,115.961156 C41.8163069,115.30404 42.2484779,114.669199 42.7168716,114.050137 C43.1012397,113.548019 43.4630034,113.024553 43.9112939,112.41106 C44.1613323,113.473768 44.4274904,114.412107 45.0037183,115.245568 C44.7956463,115.538857 44.5928548,115.806158 44.4171146,116.0781 C43.2872631,117.803493 42.2697854,119.58643 41.4171162,121.438977 C41.2304443,121.84457 41.0547041,122.251091 40.8841517,122.656684 C40.4791246,123.627507 40.1167124,124.615965 39.807291,125.63598 C39.3382488,127.178531 39.0559713,128.763777 39.0081684,130.381507 M40.8841517,123.943071 C40.953262,123.761158 41.0275602,123.574604 41.1025069,123.39269 C41.2039489,123.142095 41.3104863,122.8915 41.4171162,122.639977 C42.2853491,120.627792 43.314407,118.688929 44.4649174,116.820604 C44.6993921,116.440999 44.9713866,116.084597 45.2272614,115.709633 C45.855739,116.222888 46.4049157,116.671175 46.9966147,117.151018 C46.9642829,117.210418 46.9275044,117.317153 46.8577456,117.402541 C44.8861567,119.704303 43.5908482,122.372676 42.6264538,125.224818 C42.0883014,126.815633 41.6728984,128.427794 41.4171162,130.082649 C41.400904,130.162468 41.3899724,130.243216 41.3795966,130.323035 C41.3208621,130.723059 41.2943667,131.124011 41.2730592,131.529604 C41.2620349,131.812683 41.1341902,132.015944 40.9054592,132.175582 C40.9002713,132.180222 40.8893396,132.186719 40.8841517,132.19136 C40.4843125,132.468871 40.0630732,132.693478 39.5198255,132.790004 C39.498518,132.555187 39.4720227,132.378842 39.4661863,132.196929 C39.3440852,129.329936 39.8770498,126.591025 40.8841517,123.943071 M49.0586214,102.805845 C50.1884729,102.106964 51.4088347,101.700443 52.7518534,101.72179 C54.5212068,101.754274 55.8856256,102.528334 56.8603958,103.985498 C57.734465,105.30437 58.0115547,106.794019 57.8733341,108.337498 C57.6175519,111.123744 56.4185901,113.457062 54.2971078,115.293831 C53.3009375,116.158847 52.1658982,116.788119 50.8603991,117.055421 C49.548971,117.322722 48.2698747,117.236406 47.0818446,116.553303 C45.7763455,115.800589 45.0037183,114.636715 44.6199987,113.211107 C44.4436099,112.55492 44.3906192,111.866247 44.3266968,111.49778 C44.3744996,109.436404 44.8434491,107.818674 45.7065867,106.308607 C46.5379484,104.860724 47.6413045,103.676431 49.0586214,102.805845 M56.3171481,100.270195 C56.807405,98.6153396 57.5639126,97.0987756 58.5497071,95.6945154 C59.5574575,94.2531299 60.6660015,92.8962043 61.9392615,91.684995 C63.8740719,89.8370888 65.8512193,88.0374453 67.8124324,86.2173829 C68.7981342,85.2994626 69.783836,84.3806142 70.8177113,83.4144312 C70.8019623,83.7615517 70.6148271,83.9750215 70.4823503,84.2042695 C68.7768268,87.2160505 67.1352256,90.253819 65.6696426,93.3871849 C63.4154055,98.1930406 61.4386287,103.109344 59.7280099,108.134238 C59.3597613,109.207156 59.0672006,110.301421 58.7202595,111.455086 C58.3584958,111.503349 58.03805,111.546043 57.6336714,111.604515 C57.7027817,111.337214 57.7454893,111.14045 57.8094117,110.952968 C58.2357463,109.757537 58.4224182,108.523124 58.3526594,107.253443 C58.2570537,105.459368 57.6814743,103.868554 56.3332676,102.629501 C56.1201003,102.431809 56.0451537,102.223908 56.0503416,101.946397 C56.0612732,101.374669 56.1575274,100.819648 56.3171481,100.270195 M74.9476537,77.8404554 C74.9958271,77.7712169 75.0643815,77.7122806 75.1922263,77.5790012 C75.315439,78.0378686 75.4377254,78.4173808 75.5183232,78.8016265 C76.0139533,81.2518889 76.1631056,83.7290671 76.0139533,86.2229517 C75.9333555,87.5733804 75.8379351,88.9191685 75.7045319,90.2640284 C75.3904784,93.3825443 74.7827524,96.4472286 73.9832593,99.4747877 C73.1569003,102.619291 72.1128345,105.683975 70.6954249,108.615009 C70.1997948,109.639664 69.6606233,110.638332 69.0223258,111.583168 C67.3964736,111.470864 65.7974874,111.375267 64.1989644,111.257394 C62.5891391,111.14045 60.9909867,111.311226 59.3229828,111.369698 C59.3546661,111.204491 59.3655977,111.048565 59.4082126,110.905633 C60.1750961,107.98945 61.2784522,105.192067 62.3553129,102.384474 C64.9878038,95.5070332 68.2172742,88.9293779 71.9849897,82.6088146 C72.9438256,81.0012939 73.9573198,79.4308984 74.9476537,77.8404554 M93.0293531,128.721083 C93.0080457,128.652401 92.9867382,128.581864 92.9598723,128.517823 C92.1501886,126.48429 91.1857943,124.535218 89.8378656,122.794975 C87.3004245,119.522389 84.1728593,116.965392 80.4579492,115.138833 C77.2127298,113.537809 73.7757432,112.522435 70.2211023,111.871816 C70.0182181,111.833763 69.8162604,111.78086 69.5652029,111.727028 C69.6559913,111.551612 69.7041647,111.422601 69.7782776,111.305657 C70.5990782,109.975647 71.2975924,108.576956 71.8997599,107.130002 C74.5001969,100.910604 75.938914,94.4127682 76.4243536,87.7014623 C76.6105623,85.1871589 76.5948133,82.6774962 76.2529675,80.178971 C76.1038152,79.0958436 75.8648011,78.0378686 75.5072062,77.0023542 C75.4488423,76.8314856 75.4219764,76.6179229 75.1662868,76.6016806 C74.9004067,76.6819639 74.8624238,76.943418 74.7558865,77.1408312 C73.5191272,79.3733544 72.0646611,81.438443 70.2526003,83.2380865 C69.5605709,83.92119 68.8620566,84.5950122 68.1422349,85.2511999 C66.5061922,86.7566263 64.8437468,88.236065 63.2131699,89.7517008 C61.3849895,91.4446094 59.6795586,93.2488936 58.2357463,95.2935633 C57.1860294,96.7730021 56.3649509,98.3693852 55.8908135,100.125407 C55.7363807,100.712913 55.6562461,101.316197 55.5284013,101.962175 C55.4217714,101.919481 55.3151414,101.882356 55.213792,101.834093 C53.4553703,100.984855 51.6917608,101.065602 49.9275027,101.807178 C49.0057233,102.192351 48.1794569,102.741804 47.4333251,103.40913 C47.2788923,103.548349 47.1187157,103.676431 46.921668,103.841638 C46.921668,103.697778 46.9113849,103.628168 46.921668,103.564127 C47.2466532,101.673527 47.5935016,99.7838549 47.8971793,97.888614 C48.4300512,94.5408501 48.6968577,91.1615299 48.691114,87.7655032 C48.6859261,86.7454887 48.6322868,85.7319711 48.6057915,84.7119565 C48.5579886,83.0032697 48.4087437,81.3001517 48.0412363,79.6341588 C47.6788241,78.0165216 47.2466532,76.4153122 46.8577456,74.8025012 C45.9468979,71.0973146 45.0353089,67.3972327 43.88415,63.7612845 C43.3622098,62.1115339 42.882236,60.4462836 42.1684359,58.8658643 C42.0191911,58.5293245 41.8486387,58.1986319 41.6670621,57.8723943 C41.5288415,57.6161377 41.3795966,57.3656355 41.2304443,57.1196811 C41.2200685,57.1035316 41.2090442,57.0880319 41.198761,57.0717896 C40.9106471,56.6233173 40.50562,56.28158 39.9939629,56.0945618 C39.1096105,55.7800187 38.5126309,56.2763824 38.6722516,57.1947668 C38.7471983,57.6374847 38.880231,58.0756547 38.9706488,58.5131751 C39.0294759,58.8121256 39.1044226,59.122121 39.1044226,59.4263619 C39.0985862,61.2307388 38.8964432,63.0144185 38.4112815,64.7650568 C37.8194899,66.8904738 37.1056898,68.9725472 36.3169431,71.0280761 C34.7768766,75.0750001 33.6735205,79.2285662 33.0610699,83.5155973 C32.8427147,85.0859928 32.6398306,86.6601008 32.4693709,88.2407057 C32.2774184,90.0022959 32.0855586,91.770383 31.9738334,93.5366138 C31.8510838,95.4541298 31.803281,97.3707176 31.765854,99.2928743 C31.7283343,101.215031 31.8084689,103.131619 32.0003287,105.042638 C32.2399914,107.456703 32.7412726,109.816009 33.4602606,112.132621 C34.2276999,114.60423 34.7290738,117.140809 34.9209336,119.72565 C35.0804616,121.871486 35.106957,124.034028 35.1708794,126.185433 C35.2193307,127.535861 35.2297065,128.891859 35.5119841,130.221869 C35.9228476,132.158876 36.6418356,133.9381 38.2672245,135.21335 C38.2994636,135.240266 38.3207711,135.28296 38.3369833,135.309876 L38.3369833,144.892815 C38.1179796,144.65243 37.9958786,144.524348 37.878317,144.386056 C36.9351374,143.259307 36.0081701,142.122348 35.0487784,141.011377 C31.6482924,137.081675 28.5151687,132.949642 25.5893759,128.657042 C24.1133245,126.495428 22.9356702,124.183457 22.0667889,121.710919 C21.4434066,119.932623 21.0169794,118.118129 20.990484,116.222888 C20.9853888,115.704992 21.0169794,115.181527 21.0118841,114.658062 C21.0118841,114.568033 20.9265616,114.454801 20.8413318,114.397257 C20.809,114.370341 20.6494719,114.439951 20.6119523,114.503992 C20.1165074,115.357871 19.327668,115.955587 18.6668587,116.655397 C18.1449185,117.20485 17.6061176,117.744093 17.1216044,118.32603 C14.8722773,121.038025 14.1105817,124.113847 14.8935847,127.568346 C15.4109855,129.842264 16.3218333,131.935196 17.7449866,133.782174 C18.6455513,134.946977 19.0829101,136.27049 19.3115485,137.690529 C19.6900802,139.997859 20.3671017,142.207736 21.3793916,144.316447 C22.8555356,147.396909 25.0086086,149.842531 28.067434,151.433345 C28.1527565,151.476039 28.2270547,151.53544 28.3607359,151.619899 C28.2592938,151.695078 28.2057473,151.747981 28.1423807,151.780466 C26.4369498,152.661261 25.4402237,154.102646 24.9337545,155.918068 C24.4330291,157.695436 24.5073273,159.48487 24.992489,161.252029 C25.8665583,164.466143 27.6249799,167.061193 30.4654502,168.848771 C32.1333614,169.900342 33.9564466,170.392251 35.949343,170.04513 C36.0823757,170.018215 36.2206889,170.013574 36.3434384,170.002436 C37.3401645,171.497653 40.6231816,180.050369 40.7187873,181.417504 C39.988775,181.534448 39.2639506,181.51867 38.5443142,181.342325 C37.1431168,181.006342 35.8802327,180.386352 34.7019299,179.569597 C33.6205298,178.822453 32.6773502,177.931449 31.7974446,176.964337 C30.5668922,175.619477 29.3569062,174.257911 28.1314491,172.901914 C26.0745376,170.632636 23.8787571,168.523926 21.3793916,166.73542 C19.327668,165.271759 17.1429118,164.054981 14.8192865,163.077661 C11.8619031,161.828398 8.74943844,161.31607 5.56267556,161.144366 C4.43282411,161.086822 3.292041,161.075685 2.15700164,161.044128 C1.6136613,161.027422 1.0704136,161.016285 0.526517418,161.006075 C0.334657599,161.006075 0.147893042,161.027422 0.0626631854,161.240892 C0.0626631854,161.476637 0.238959292,161.572234 0.393392087,161.66876 C1.44310895,162.3036 2.30105863,163.152839 3.07368581,164.086538 C3.85724465,165.036942 4.60337646,166.019832 5.34950827,166.997152 C6.52716256,168.539704 7.66738982,170.11474 8.86635157,171.641513 C10.6997199,173.959053 12.8101779,175.987945 15.2345968,177.690135 C17.8677362,179.54361 20.7295139,180.81886 23.9214647,181.326547 C26.0958451,181.668099 28.2592938,182.042135 30.4228352,182.43659 C32.2826063,182.77907 34.1372821,183.152178 35.949343,183.713697 C37.4467945,184.177761 38.8750431,184.786615 40.1541394,185.714744 C40.4100143,185.902226 40.5591666,186.099918 40.5482349,186.414554 C40.543047,186.559342 40.5643545,186.703202 40.5695424,186.841494 C40.6173452,189.688068 40.6709844,192.533713 40.7135993,195.379359 C40.7452826,197.412891 40.7665901,199.45292 40.7988292,201.492021 C40.8040171,201.871626 40.8305125,202.250303 40.8731274,202.62898 C40.8783153,202.650327 40.8783153,202.671674 40.8841517,202.68838 C40.9106471,202.821103 40.9584499,202.91206 41.0275602,202.960322 C41.1076948,203.013226 41.2200685,203.013226 41.3531012,202.960322 C41.3693134,202.954754 41.3899724,202.949185 41.4112798,202.938975 C41.6244471,202.84245 41.8325191,202.719937 42.0191911,202.576077 C42.0779255,202.527814 42.1419406,202.479551 42.2000266,202.426648 C42.6749051,202.052612 43.0954033,201.609894 43.4688398,201.118913 C43.6657948,200.856252 43.7511173,200.59452 43.7459294,200.269674 C43.7349978,199.297923 43.7407415,198.326171 43.7459294,197.354419 C43.7459294,195.02667 43.7563052,192.704489 43.7459294,190.38138 C43.7459294,190.008272 43.8254155,189.681571 44.0598903,189.39385 C44.1826398,189.249062 44.2840819,189.084783 44.4171146,188.950204 C45.1684343,188.197491 45.9093782,187.429 46.6930297,186.708771 C48.1206298,185.389899 49.6606962,184.209318 51.2279065,183.056581 C51.3610319,182.960055 51.4992525,182.880236 51.6278384,182.794848 C51.7182561,182.826405 51.7925544,182.843111 51.8512888,182.874667 C53.9191319,184.108152 56.1201003,184.199108 58.3526594,183.489089 C61.2202735,182.57581 63.3359194,180.723263 64.7054335,178.042824 C65.5732958,176.339706 65.9577566,174.524284 65.6057202,172.603056 C65.2536839,170.659552 64.2732626,169.132779 62.578856,168.091417 C62.3766203,167.963335 62.1738289,167.845463 61.9605689,167.717381 C62.0193961,167.621784 62.0671989,167.541036 62.1208381,167.466786 C65.0885047,163.254005 67.4659545,158.753504 68.8518661,153.762023 C69.5337049,151.315473 70.3063321,148.896767 70.7750963,146.40381 C71.1799382,144.242196 71.4995501,142.058307 71.8515865,139.884627 C72.2619868,137.344336 72.9493841,134.893146 74.0360648,132.555187 C74.3084298,131.97325 74.5798683,131.395953 74.8411164,130.814016 C74.8939218,130.691502 74.9105972,130.557852 74.9430216,130.424201 C74.6382322,130.237647 74.457582,130.392645 74.2973128,130.568061 C74.13797,130.744406 74.0101253,130.953235 73.8498561,131.118442 C72.3898316,132.619228 70.8492093,134.012351 68.941728,134.93584 C68.6008086,135.101047 68.2756381,135.304307 67.9504677,135.490861 C64.9664963,137.216254 62.1473335,139.169967 59.7170782,141.625799 C55.2777144,146.110521 51.9203991,151.315473 49.5599953,157.167331 C47.4494446,162.404767 45.8079361,167.79256 44.5876669,173.313075 C44.278894,174.721976 43.9268576,176.120667 43.5753771,177.525856 C43.5114547,177.78202 43.4952425,178.080877 43.2181528,178.347251 C43.1968453,178.186684 43.1807258,178.102224 43.1755379,178.016836 C43.0740958,176.387969 42.9784902,174.754461 42.8661164,173.120952 C42.8131257,172.297701 42.7116836,171.470738 42.6586929,170.642846 C42.5521556,169.132779 42.4616452,167.621784 42.3602958,166.10522 C42.3389883,165.789656 42.4294061,165.523282 42.5999584,165.245772 C44.5398641,162.090131 45.0353089,158.726589 44.0598903,155.144008 C43.6444874,153.606097 43.0314809,152.148933 42.2910928,150.739104 C42.1949313,150.55255 42.0831135,150.354859 42.0721818,150.157167 C42.0404985,149.660617 42.0721818,149.164068 42.0721818,148.668447 L42.0721818,136.932247 C42.0669939,136.649167 42.0721818,136.371656 42.0721818,136.062589 C42.3440836,135.934507 42.5999584,135.811066 42.8557406,135.69969 C43.5540696,135.400833 44.2627744,135.1391 44.9397033,134.807758 C46.6820054,133.94831 48.3124896,132.89117 49.9223148,131.807114 C53.5406002,129.37263 56.8339004,126.580816 59.4185884,123.025151 C59.498723,122.912847 59.6052604,122.816322 59.700866,122.709587 C59.8133324,122.725365 59.9089381,122.730934 59.9941679,122.752281 C61.3849895,123.142095 62.7972112,123.4623 64.1563494,123.927293 C67.9078528,125.218322 71.6431439,126.580816 75.4432838,127.739122 C78.6301394,128.709945 81.8327439,129.628794 85.1687516,129.987052 C87.7006342,130.253425 90.167668,129.991693 92.6032039,129.287242 C92.6504508,129.277033 92.6930658,129.260326 92.7356807,129.244548 C93.0562191,129.122035 93.1099509,129.02551 93.0293531,128.721083" id="Shape" fill="#656B3F" fill-rule="nonzero"></path>
            <path d="M91.1051965,127.739122 C90.2213999,127.146047 89.3468675,126.542763 88.4778935,125.9237 C86.7621794,124.690216 84.9881014,123.569035 83.0315203,122.752281 C80.6497164,121.753613 78.1873147,121.150329 75.5924361,121.167035 C75.1181134,121.171676 74.6437907,121.204161 74.180585,121.262633 C73.8229901,121.310895 73.5404346,121.219939 73.2476886,121.027816 C71.2068041,119.714512 69.0010183,118.742761 66.7192668,117.936216 C63.7409465,116.890214 60.6763773,116.222888 57.5271341,115.976934 C56.5619986,115.902684 55.5923237,115.86463 54.5690096,115.800589 C54.7660573,115.464606 55.0968789,115.272484 55.3313536,114.994973 C55.5762042,114.706324 55.8430107,114.434382 56.0774854,114.135525 C56.3061238,113.841308 56.5251274,113.526672 56.7273631,113.206467 C56.9301545,112.890903 57.1110827,112.55492 57.3403696,112.165105 C57.6866622,112.111274 58.0814061,112.047233 58.470221,111.988761 C60.2125231,111.737237 61.9605689,111.689903 63.7087074,111.722387 C69.3891847,111.833763 74.8299994,113.024553 79.973436,115.443259 C83.5382674,117.12503 86.5546632,119.533527 89.0541214,122.586146 C90.4020502,124.230792 91.4146179,126.073129 92.2734014,128.005495 C92.3095314,128.090883 92.3262068,128.18184 92.4114367,128.464919 C91.8778237,128.17163 91.4729818,127.984148 91.1051965,127.739122 Z M91.6434415,129.042216 C89.278313,129.665919 86.8900242,129.756876 84.4711638,129.420893 C81.8596098,129.063563 79.3175367,128.417585 76.807888,127.648165 C73.5089366,126.633719 70.2211023,125.603495 66.9860733,124.391358 C66.7887477,124.316179 66.591422,124.241929 66.267178,124.113847 C68.0468145,123.489216 69.6819308,122.8915 71.3346489,122.351329 C73.2263811,121.737835 75.1709189,121.524365 77.1488074,121.710919 C79.2165578,121.903042 81.1879615,122.47477 83.0852522,123.302662 C84.6091991,123.964418 86.0321672,124.808088 87.3958449,125.752924 C88.2490699,126.35064 89.0967364,126.959493 89.9601519,127.535861 C90.5298949,127.914538 91.1320624,128.257018 91.7184809,128.609707 C91.8352087,128.683958 91.952863,128.747999 92.1659376,128.870512 C91.9315555,128.951259 91.7925938,129.004163 91.6434415,129.042216 Z M64.3269018,123.452091 C62.2377513,122.746712 60.1058931,122.213038 57.9263248,121.881695 C56.3061238,121.64131 54.6866638,121.577269 53.0503432,121.790738 C51.0464225,122.05804 49.4372458,123.025151 48.2059523,124.599259 C47.7001316,125.246165 47.2414653,125.949688 46.863582,126.681982 C45.9947007,128.363753 45.1955781,130.082649 44.33698,131.775558 C43.9216697,132.597881 43.4688398,133.403497 42.9836781,134.188695 C42.6800004,134.690813 42.3389883,135.181794 41.811119,135.501999 C41.5766443,135.645859 41.5876686,135.891813 41.5876686,136.132199 C41.5979518,137.626488 41.5979518,139.121705 41.6031397,140.616922 C41.6089761,143.290863 41.614164,145.97223 41.6192592,148.65174 L41.6192592,149.436938 C41.5340294,149.330203 41.470107,149.255025 41.4171162,149.190984 C41.363477,149.121374 41.3208621,149.068471 41.2833424,149.014639 C41.1503097,148.822516 41.0171844,148.635962 40.8841517,148.443839 C40.3085722,147.627085 39.743276,146.804762 39.1522254,146.003786 C38.9125628,145.678013 38.8001891,145.362449 38.8059328,144.962425 C38.842804,141.951572 38.8641114,138.939791 38.8964432,135.928938 C38.8964432,135.672775 38.9338702,135.416611 38.9493413,135.133531 C37.2710543,134.09217 36.5623495,132.410399 36.0823757,130.584768 C35.8214056,129.597237 35.7413636,128.577223 35.6935608,127.562777 C35.6451094,126.495428 35.6451094,125.427151 35.6295457,124.358873 C35.5973066,120.915512 35.3259607,117.499067 34.4945064,114.140165 C34.1483064,112.741474 33.7432793,111.35392 33.3537233,109.959869 C32.9273887,108.448874 32.6986577,106.906322 32.5281053,105.352633 C32.2025644,102.399324 32.1443857,99.4367344 32.2884427,96.4741443 C32.3466213,95.176619 32.4854904,93.8790937 32.5810961,92.5815683 C32.6502064,91.6580793 32.7090335,90.7336621 32.7890755,89.8157418 C33.1890073,85.2298529 33.8065532,80.6755204 35.1017691,76.249641 C35.7361757,74.071135 36.5462299,71.9412629 37.2975496,69.7944989 C37.9745711,67.8728991 38.6509442,65.9507425 39.0933983,63.9593474 C39.2852581,63.083657 39.4021712,62.1918172 39.5727236,61.2255413 C39.642575,61.4869955 39.7167806,61.6954534 39.7594882,61.9038185 C40.254933,64.4182147 40.5960377,66.9546076 40.6386527,69.5226497 C40.6761723,71.4869434 40.7400947,73.4569915 40.6974798,75.4218421 C40.6547722,77.5039155 40.4894078,79.5868242 40.3828704,81.6686192 C40.361563,82.1438216 40.3563751,82.6134552 40.3298797,83.0886576 C40.2232497,85.3152408 40.1432078,87.5408959 39.9939629,89.7628384 C39.8130347,92.5277368 39.5676283,95.2879946 39.3705806,98.0538211 C39.2317115,99.8961586 39.1361059,101.743137 39.0029805,103.585474 C38.778789,106.804228 38.5979534,110.018341 38.6457563,113.243592 C38.6722516,115.379218 38.7736937,117.509276 38.8272403,119.644903 C38.8324282,119.896426 38.8001891,120.162799 38.7096787,120.397616 C38.1392871,121.91418 37.7290721,123.467869 37.5533318,125.08003 C37.324045,127.199878 37.4305823,129.292811 38.1929263,131.310565 C38.3795982,131.795977 38.6031413,132.272107 38.8589235,132.720394 C39.146389,133.23829 39.4183834,133.323678 39.9835871,133.147334 C40.3033843,133.046168 40.6069694,132.912517 40.8841517,132.736172 C41.0708236,132.623868 41.2517518,132.491146 41.4171162,132.346358 C41.4649191,132.303664 41.5127219,132.255401 41.5605247,132.212707 C42.1309163,131.663254 42.578651,131.021917 42.8931677,130.301688 C43.3835173,129.148951 43.8576547,127.984148 44.3002014,126.810064 C44.7478435,125.640621 45.1154435,124.434052 45.5844857,123.270177 C45.9784885,122.287288 46.4527185,121.326674 46.921668,120.371628 C47.2899166,119.618915 47.8544717,119.014703 48.477854,118.454112 C48.9733915,118.000257 49.5599953,117.76544 50.1884729,117.675411 C51.3022047,117.503707 52.3416384,117.162156 53.3170571,116.601565 C53.5568124,116.462346 53.8442779,116.382527 54.1161796,116.355611 C54.6330246,116.302708 55.1608012,116.27672 55.6775536,116.302708 C59.2803679,116.49483 62.8133307,117.108324 66.2393857,118.277768 C68.2969456,118.983146 70.2905831,119.853732 72.181389,120.942428 C72.4009485,121.064941 72.6455211,121.161467 72.8530373,121.470534 C71.2169946,121.796307 69.7625286,122.346688 68.3025041,122.896141 C67.5511844,123.179221 66.7943062,123.446522 65.994813,123.584813 C65.413953,123.686907 64.8650542,123.633076 64.3269018,123.452091 Z M43.3938931,134.577582 C44.5075323,132.741741 45.344823,130.782459 46.2879099,128.881649 C46.7673279,127.904329 47.273797,126.943715 47.8118568,125.998879 C48.4036485,124.957517 49.1865588,124.076722 50.1781897,123.39269 C51.2705215,122.635337 52.4908833,122.2613 53.8339021,122.208397 C53.6737255,122.827459 52.8370833,124.098069 50.8441869,126.772939 C49.7673262,128.214324 48.6535943,129.623225 47.4229493,130.936529 C46.1813726,132.26097 44.8861567,133.526011 43.3938931,134.577582 Z M58.6569856,123.206136 C56.8979154,125.522748 54.8571236,127.546999 52.5386862,129.308589 C50.2576758,131.043264 47.8971793,132.661922 45.3867895,134.043907 C45.1419389,134.183126 44.8809688,134.300071 44.6251866,134.423512 C44.6141623,134.428153 44.5876669,134.406806 44.5346762,134.375249 C48.6220037,130.921679 51.7021366,126.655066 54.6065292,122.148997 C55.7952078,122.073818 57.8946415,122.293785 59.0672006,122.62884 C58.9231436,122.8321 58.7952062,123.025151 58.6569856,123.206136 Z M43.1012397,153.723969 C43.7776127,155.539391 44.1561444,157.407716 44.0385828,159.361429 C43.8951743,161.700316 43.0476005,163.771902 41.6619668,165.645796 C41.7310771,165.496367 41.7949995,165.3358 41.8699462,165.186371 C43.2607677,162.458598 42.9519948,159.655646 41.4171162,157.300981 C41.256847,157.044817 41.0760115,156.798863 40.8841517,156.558478 C40.7775217,156.425755 40.6709844,156.292104 40.5534228,156.158454 C40.0630732,155.597863 39.4661863,155.170924 38.8163086,154.813594 C37.6063226,154.146268 36.3272262,153.665497 34.9635485,153.429752 C33.1353681,153.109547 31.4143735,152.45336 29.73025,151.695078 C29.3627426,151.528943 29.0003304,151.358167 28.6430135,151.18275 C25.546761,149.660617 23.3458852,147.263258 21.8536216,144.182796 C20.6810626,141.769659 19.9775457,139.222871 19.6261578,136.574917 C19.2372503,133.632745 19.0666979,130.680365 19.2159428,127.712206 C19.3438802,125.182124 19.6313457,122.661324 20.090012,120.162799 C20.2230447,119.431433 20.3561701,118.700067 20.4840149,117.963132 C20.5215345,117.963132 20.5532178,117.963132 20.5854569,117.957563 C20.6280718,118.085645 20.6810626,118.213727 20.70237,118.341808 C21.1875317,121.305327 22.3121953,124.034028 23.7670319,126.633719 C24.848432,128.577223 26.1811676,130.371298 27.4705471,132.186719 C29.8956145,135.608734 32.5655324,138.838625 35.2775094,142.041601 C36.7109459,143.740078 38.123816,145.464543 39.4720227,147.237271 C39.9726554,147.893459 40.4467928,148.571921 40.8841517,149.271731 C41.0708236,149.559451 41.2517518,149.85274 41.4171162,150.152526 C42.0779255,151.289485 42.6425734,152.480276 43.1012397,153.723969 Z M42.6903762,179.014576 C42.3124929,178.577427 41.8751341,177.78202 41.4436116,176.80934 C41.4325873,176.787993 41.4273994,176.772215 41.4171162,176.750868 C41.2355396,176.339706 41.059892,175.902557 40.8841517,175.448702 C39.9726554,173.051342 39.2103114,170.178781 39.2161478,168.646439 C39.5941237,168.330875 40.0100825,167.989323 40.4254854,167.643131 C40.5805667,167.514121 40.7290704,167.381398 40.8841517,167.246819 C41.0547041,167.103887 41.2200685,166.954458 41.3899724,166.80967 C41.400904,166.80503 41.4060919,166.793892 41.4171162,166.783683 C41.4273994,166.778114 41.4325873,166.772545 41.4436116,166.761407 C41.5553368,166.660241 41.6728984,166.543297 41.8060238,166.419856 C42.0456864,167.621784 42.7969135,178.374166 42.6903762,179.014576 Z M43.4578155,179.40439 C43.9642846,178.144918 44.278894,176.830687 44.582479,175.517383 C45.3286108,172.308839 46.0262913,169.090085 46.9966147,165.944653 C48.2059523,162.02609 49.5063561,158.139082 51.2970168,154.439557 C53.5192927,149.842531 56.3862584,145.678013 59.9780483,142.041601 C61.8223483,140.178844 63.8895429,138.598239 66.0902334,137.199548 C67.246395,136.462613 68.4516563,135.800856 69.6346838,135.106615 C69.7671606,135.032365 69.9163129,134.978534 70.1997948,134.844883 C70.07195,135.063922 70.0395256,135.1391 69.9867202,135.20871 C69.0751313,136.425488 68.376617,137.771276 67.7373931,139.14862 C66.2032556,142.431415 64.6680065,145.715138 62.8237065,148.839223 C60.9747745,151.982798 59.0613642,155.091104 57.1647219,158.203123 C54.1750068,163.099008 51.3235122,168.064502 48.7763438,173.20634 C47.7427465,175.282566 46.8421819,177.423762 45.9041903,179.54361 C45.3713184,180.739041 44.7956463,181.902916 44.0385828,182.971193 C43.9003622,183.163316 43.7828006,183.371217 43.6548632,183.568908 C43.3989883,183.953154 43.292451,184.369884 43.292451,184.839518 C43.3033827,187.493041 43.292451,190.152132 43.2872631,192.805655 C43.2872631,195.176099 43.2659556,197.546542 43.2769799,199.916985 C43.2820752,200.423744 43.1490425,200.840474 42.8131257,201.208942 C42.4131939,201.652588 42.0029789,202.073959 41.4223041,202.426648 L41.4171162,202.426648 C41.400904,202.436857 41.3899724,202.447995 41.3745013,202.458204 C41.3480059,202.217819 41.3156742,202.06839 41.3104863,201.918961 C41.256847,198.908108 41.2039489,195.897255 41.1503097,192.885474 C41.1076948,190.685807 41.059892,188.480571 41.0333966,186.275335 C41.0275602,186.051655 40.9849453,185.875311 40.8841517,185.725882 C40.8202293,185.624716 40.7290704,185.533759 40.6121573,185.448371 C39.130918,184.338328 37.4570777,183.649656 35.698656,183.130831 C33.8336971,182.586947 31.9312184,182.212911 30.0235519,181.86579 C27.8646426,181.475976 25.690818,181.124215 23.5267208,180.754819 C20.6280718,180.25827 18.0382885,179.041492 15.6345286,177.375499 C13.1616584,175.662171 11.0143293,173.606364 9.1705851,171.235921 C7.75845607,169.426068 6.39412987,167.573521 5.01359147,165.736752 C3.98518207,164.375186 2.93027731,163.034967 1.6136613,161.929564 C1.56011472,161.88687 1.53361935,161.818189 1.43801368,161.690107 C2.85014272,161.849745 4.1131195,162.233991 5.34950827,162.703624 C10.4277255,164.63135 15.1074005,167.284873 19.434298,170.557458 C21.6830692,172.255007 23.8787571,174.023094 26.0849134,175.774475 C27.5719892,176.948559 29.0371089,178.149559 30.6521221,179.148227 C32.9913111,180.589612 35.5017009,181.598489 38.2142338,182.057913 C39.1096105,182.212911 39.9991508,182.197133 40.8841517,182.030997 C41.059892,181.999441 41.2407275,181.962316 41.4171162,181.914053 C41.4273994,181.914053 41.4384237,181.914053 41.4487995,181.908484 C41.8589219,181.807318 42.1845555,181.598489 42.434594,181.262506 C42.8609285,180.690778 43.1968453,180.066147 43.4578155,179.40439 Z M73.6423399,132.158876 C73.599725,132.282317 73.572859,132.410399 73.5191272,132.528271 C72.3629656,135.021228 71.7135512,137.658972 71.280917,140.360758 C70.9242486,142.602191 70.5935197,144.85569 70.1303139,147.082273 C69.4484751,150.354859 68.4729638,153.553193 67.3807246,156.707906 C66.2291952,160.018545 64.4651224,163.023829 62.6001634,165.966 C62.3979278,166.287133 62.1847605,166.601769 61.9657568,166.911764 C61.8165119,167.119665 61.651796,167.311788 61.4916194,167.514121 C61.0277652,167.402745 60.6233866,167.284873 60.2073352,167.215263 C58.2196267,166.873711 56.3384555,167.23661 54.5800339,168.176805 C51.5690113,169.778757 49.6239177,172.21881 48.9307766,175.59813 C48.7337289,176.558745 48.7550364,177.530496 48.9255887,178.49668 C48.9682036,178.731496 49.0160065,178.961672 49.0799289,179.276308 C47.9714775,179.874024 46.8951727,180.46153 45.8079361,181.049036 C45.8079361,181.01748 45.7866287,180.946942 45.8079361,180.894039 C46.6820054,178.923619 47.5398624,176.948559 48.4410755,174.989277 C49.9010074,171.828068 51.6065309,168.791227 53.2957496,165.746962 C55.5121891,161.74301 57.9263248,157.861572 60.3462043,153.985702 C63.2661606,149.293078 65.8669683,144.434319 68.1533518,139.399215 C69.1501706,137.199548 70.4128694,135.187363 72.118393,133.467538 C72.5815987,132.997905 73.0772289,132.559828 73.6423399,132.158876 Z M65.1957831,173.152509 C65.2274664,173.435588 65.2379349,173.718668 65.2490518,173.878306 C65.1744757,176.494704 64.172469,178.587636 62.4774139,180.360364 C60.9056642,181.999441 59.0031855,183.072359 56.7434826,183.361007 C54.1161796,183.69235 51.8564767,182.965624 50.3061271,180.680569 C49.3732307,179.313434 49.1174485,177.760673 49.3306158,176.126236 C49.8900757,171.806721 53.4979853,168.625092 56.769978,167.8566 C58.2305584,167.50948 59.6795586,167.434301 61.097524,167.941988 C63.5381551,168.806077 64.8759859,170.589942 65.1957831,173.152509 Z M50.6149001,182.960055 C49.2989325,184.001417 47.9714775,185.026072 46.6658858,186.083212 C45.7065867,186.862841 44.8434491,187.738995 44.0495145,188.678262 C43.9959679,188.747872 43.9164818,188.790566 43.7885444,188.897301 C43.7885444,188.229976 43.7672369,187.648038 43.7989202,187.070742 C43.8098518,186.873978 43.9319529,186.666077 44.0495145,186.488804 C44.5611715,185.720313 45.1154435,184.988947 45.7918166,184.354106 C46.9488119,183.264482 48.174269,182.265814 49.5172877,181.411935 C49.655601,181.326547 49.799658,181.2458 49.9650224,181.150202 C50.4074765,181.619836 50.7905477,182.030997 51.211787,182.484853 C51.0038076,182.645419 50.8119478,182.805058 50.6149001,182.960055 Z M43.7885444,184.652036 C43.8254155,184.385663 43.9268576,184.102583 44.0657267,183.863126 C44.7582193,182.676976 45.6697155,181.695014 46.8577456,181.000773 C47.6097138,180.557127 48.3978121,180.168241 49.2078663,179.735733 C49.3093084,179.912077 49.3997261,180.066147 49.4850486,180.226713 C49.5599953,180.371502 49.6291056,180.520002 49.7253598,180.712125 C49.548971,180.840207 49.3894429,180.968289 49.2137027,181.075024 C47.9714775,181.860222 46.799567,182.741017 45.7336379,183.756391 C45.0728286,184.391231 44.4759417,185.090113 43.7776127,185.838186 C43.7776127,185.405677 43.7459294,185.026072 43.7885444,184.652036 Z M14.0253519,163.280921 C17.878112,164.786347 21.2993496,166.991584 24.3580824,169.778757 C26.0797255,171.342656 27.6308163,173.067121 29.1811659,174.791586 C30.1566772,175.885851 31.1475669,176.969906 32.1605053,178.032615 C33.2103148,179.138017 34.4040886,180.066147 35.7522953,180.781735 C35.8104739,180.81886 35.8640205,180.868051 35.9170112,180.915386 C35.6670654,181.03233 35.4589934,180.861554 35.2406382,180.792872 C33.1890073,180.098631 31.2755044,179.111101 29.5435781,177.813576 C27.7690369,176.478926 26.0422059,175.074665 24.29416,173.697321 C21.9711832,171.866121 19.6635848,170.013574 17.2069269,168.363359 C13.5666855,165.913097 9.7248571,163.841511 5.61047839,162.293391 C4.99747191,162.057646 4.36890171,161.855314 3.74551942,161.64178 C7.246799,161.636275 10.7158395,161.993605 14.0253519,163.280921 Z M36.8336954,169.821451 C37.1483047,169.682232 37.4416066,169.548581 37.7400964,169.426068 C38.0436814,169.297986 38.3524544,169.180113 38.7258909,169.030685 C38.7898132,169.34068 38.842804,169.612622 38.8906068,169.878995 C39.1787208,171.635945 39.6102433,173.3502 40.196847,175.031971 C40.4041779,175.619477 40.6334648,176.195846 40.8841517,176.762005 C41.0547041,177.135113 41.2304443,177.504509 41.4171162,177.867408 C41.4223041,177.882258 41.4325873,177.903605 41.4436116,177.920311 C41.7155134,178.459554 42.0140032,178.983019 42.3227761,179.505557 C42.4294061,179.68747 42.5308481,179.869383 42.6425734,180.072644 C42.3014686,180.584043 42.1147967,181.209603 41.4171162,181.44906 L41.0171844,180.418836 C40.9693816,180.285185 40.9267666,180.146894 40.8841517,180.007675 C39.7381807,176.527188 38.4590843,173.13673 36.8336954,169.821451 Z M40.8893396,163.99094 C40.9797574,163.21688 40.9745695,162.447461 40.8841517,161.690107 C40.7827096,160.771258 40.5643545,159.863547 40.2394619,158.961405 C39.8285985,157.818878 39.2743265,156.7506 38.5714581,155.76307 C38.4377769,155.576516 38.3098395,155.384393 38.1605946,155.165355 C39.0294759,155.299005 40.0791928,156.185369 40.8841517,157.370591 C41.0811994,157.652742 41.256847,157.952528 41.4171162,158.262524 C41.5928565,158.592938 41.7420087,158.940058 41.8647583,159.287179 C42.578651,161.32628 42.327964,163.168617 41.4436116,164.866167 C41.4384237,164.881945 41.4273994,164.898651 41.4171162,164.914429 C41.2620349,165.213287 41.0811994,165.506576 40.8841517,165.795224 C40.687104,166.088513 40.4732882,166.377162 40.2394619,166.660241 C40.4100143,166.09501 40.6231816,165.544629 40.7400947,164.972901 C40.8040171,164.663834 40.8518199,164.359408 40.8841517,164.054981 C40.8893396,164.033634 40.8893396,164.012287 40.8893396,163.99094 Z M33.4602606,169.548581 C31.765854,169.191251 30.3272296,168.363359 29.0746286,167.199485 C26.921463,165.192868 25.6268956,162.714762 25.1791609,159.805075 C25.1042142,159.340082 25.1152385,158.860239 25.0829068,158.390606 C25.0726236,157.012333 25.3497133,155.704598 26.0208984,154.492461 C26.6126901,153.429752 27.4544275,152.624136 28.5681594,152.117377 C28.872393,151.978157 29.1333631,151.967948 29.442136,152.106239 C30.6043192,152.629704 31.7819735,153.126254 33.0184549,153.456668 C33.7270671,153.64415 34.4357719,153.814926 35.1554083,153.964355 C36.6902869,154.273422 36.951257,154.412642 37.8835049,155.646126 C39.5676283,157.882919 40.5217395,160.387013 40.4843125,163.221521 C40.4681003,164.326923 40.2394619,165.384063 39.7756077,166.387371 C38.634732,168.876615 36.1360149,170.11474 33.4602606,169.548581 Z M18.7469933,131.924059 C18.7837718,132.725963 18.8322232,133.526011 18.8748381,134.332555 C18.8374111,134.353902 18.7947961,134.375249 18.7572765,134.396596 C18.432384,133.9381 18.1177746,133.478676 17.7927895,133.019252 C16.6312548,131.395953 15.8851229,129.591669 15.4109855,127.663943 C14.8670894,125.458707 14.942036,123.296165 15.8851229,121.204161 C16.05058,120.835693 16.2424399,120.483004 16.4445828,120.135883 C17.4568727,118.390071 18.9278288,117.055421 20.4200925,115.555563 C20.398785,115.811727 20.4039729,115.939809 20.3774775,116.06325 C19.88194,118.571985 19.3806588,121.081647 19.0718858,123.622867 C18.7411569,126.377556 18.6190559,129.148951 18.7469933,131.924059 Z M39.2478311,56.5702283 C39.6315507,56.3993596 39.9622796,56.5430341 40.2336256,56.7831413 C40.5107152,57.0290956 40.7724265,57.3118968 40.9797574,57.6219849 C41.0333966,57.7015256 41.0863873,57.7766113 41.1290023,57.8568945 C41.3046499,58.1286509 41.4597312,58.4121945 41.5928565,58.7053907 C41.8273312,59.1862547 42.0191911,59.6826185 42.1845555,60.190027 C42.9145678,62.4164246 43.6548632,64.6427293 44.294365,66.8956714 C45.0618043,69.6294774 45.7336379,72.3897352 46.4423427,75.139041 C46.8312503,76.6767663 47.2414653,78.2087372 47.5721942,79.7576001 C48.0199288,81.8022699 48.1581494,83.8840648 48.1581494,85.9769973 C48.1639858,87.7766408 48.2007644,89.580925 48.0941344,91.3749997 C47.9824092,93.3342815 47.7582176,95.2935633 47.5134597,97.2426357 C47.2201578,99.5703851 46.7937306,101.876787 46.3144053,104.167412 C46.2343633,104.53031 46.1064259,104.834737 45.899095,105.133595 C44.8596613,106.580549 44.1878277,108.181573 43.9532603,109.959869 C43.9112939,110.264296 43.8738669,110.574291 43.88415,110.877789 C43.9003622,111.327004 43.7614005,111.716819 43.5114547,112.074149 C43.132923,112.618961 42.7653229,113.168413 42.3705789,113.702088 C42.0404985,114.151303 41.7207013,114.599589 41.4171162,115.064582 C41.2355396,115.336524 41.0547041,115.614035 40.8841517,115.897115 C40.3938021,116.698091 39.951348,117.525054 39.5676283,118.384502 C39.5146376,118.502375 39.434503,118.614679 39.3705806,118.726982 C39.3117535,118.710276 39.253019,118.695426 39.1948404,118.684288 C39.1948404,118.209086 39.2000283,117.739452 39.1948404,117.26425 C39.146389,114.044568 39.0772787,110.820245 39.2374553,107.599635 C39.3279657,105.752657 39.4661863,103.911248 39.5837479,102.06891 C39.6528582,101.048896 39.700661,100.03445 39.7807956,99.0200041 C39.9461601,96.8685995 40.1380199,94.7227636 40.2975479,92.5759995 C40.3828704,91.4390406 40.4467928,90.3067224 40.50562,89.1697635 C40.6334648,86.7779732 40.7562143,84.3917517 40.8680321,81.9990333 C40.8731274,81.8922984 40.8783153,81.7920604 40.8841517,81.6843974 C41.059892,77.9847795 41.2891788,74.2795929 41.1716172,70.5633615 C41.1238144,69.0417857 41.0488677,67.5202098 40.8841517,66.009029 C40.7724265,64.909381 40.6121573,63.8150232 40.3938021,62.7257702 C40.0476021,61.0333257 39.6373871,59.3571234 39.2691386,57.6698764 C39.189004,57.3118968 39.0184516,56.9437077 39.2478311,56.5702283 Z M47.47594,117.3385 C47.865496,117.435026 48.2168839,117.520414 48.6535943,117.627149 C48.4565466,117.813703 48.318326,117.9687 48.1581494,118.096782 C47.4707521,118.657373 46.9377876,119.340476 46.5062651,120.114536 C45.7336379,121.503018 45.1523147,122.971319 44.6089744,124.460968 C43.9642846,126.238336 43.292451,128.005495 42.616078,129.772654 C42.4403377,130.226509 42.2162388,130.670155 41.8325191,131.007067 C42.5469677,125.977532 44.1451201,121.321105 47.47594,117.3385 Z M39.0081684,130.381507 C38.9920489,130.798237 38.9551777,131.209399 38.9280338,131.62056 C38.4274011,130.744406 38.181902,129.815348 38.0540572,128.860303 C37.6386543,125.742715 38.2516608,122.783837 39.4293151,119.911276 C39.8557423,118.859705 40.3402555,117.846187 40.8841517,116.863298 C41.0547041,116.558871 41.2304443,116.260014 41.4171162,115.961156 C41.8163069,115.30404 42.2484779,114.669199 42.7168716,114.050137 C43.1012397,113.548019 43.4630034,113.024553 43.9112939,112.41106 C44.1613323,113.473768 44.4274904,114.412107 45.0037183,115.245568 C44.7956463,115.538857 44.5928548,115.806158 44.4171146,116.0781 C43.2872631,117.803493 42.2697854,119.58643 41.4171162,121.438977 C41.2304443,121.84457 41.0547041,122.251091 40.8841517,122.656684 C40.4791246,123.627507 40.1167124,124.615965 39.807291,125.63598 C39.3382488,127.178531 39.0559713,128.763777 39.0081684,130.381507 Z M40.8841517,123.943071 C40.953262,123.761158 41.0275602,123.574604 41.1025069,123.39269 C41.2039489,123.142095 41.3104863,122.8915 41.4171162,122.639977 C42.2853491,120.627792 43.314407,118.688929 44.4649174,116.820604 C44.6993921,116.440999 44.9713866,116.084597 45.2272614,115.709633 C45.855739,116.222888 46.4049157,116.671175 46.9966147,117.151018 C46.9642829,117.210418 46.9275044,117.317153 46.8577456,117.402541 C44.8861567,119.704303 43.5908482,122.372676 42.6264538,125.224818 C42.0883014,126.815633 41.6728984,128.427794 41.4171162,130.082649 C41.400904,130.162468 41.3899724,130.243216 41.3795966,130.323035 C41.3208621,130.723059 41.2943667,131.124011 41.2730592,131.529604 C41.2620349,131.812683 41.1341902,132.015944 40.9054592,132.175582 C40.9002713,132.180222 40.8893396,132.186719 40.8841517,132.19136 C40.4843125,132.468871 40.0630732,132.693478 39.5198255,132.790004 C39.498518,132.555187 39.4720227,132.378842 39.4661863,132.196929 C39.3440852,129.329936 39.8770498,126.591025 40.8841517,123.943071 Z M49.0586214,102.805845 C50.1884729,102.106964 51.4088347,101.700443 52.7518534,101.72179 C54.5212068,101.754274 55.8856256,102.528334 56.8603958,103.985498 C57.734465,105.30437 58.0115547,106.794019 57.8733341,108.337498 C57.6175519,111.123744 56.4185901,113.457062 54.2971078,115.293831 C53.3009375,116.158847 52.1658982,116.788119 50.8603991,117.055421 C49.548971,117.322722 48.2698747,117.236406 47.0818446,116.553303 C45.7763455,115.800589 45.0037183,114.636715 44.6199987,113.211107 C44.4436099,112.55492 44.3906192,111.866247 44.3266968,111.49778 C44.3744996,109.436404 44.8434491,107.818674 45.7065867,106.308607 C46.5379484,104.860724 47.6413045,103.676431 49.0586214,102.805845 Z M56.3171481,100.270195 C56.807405,98.6153396 57.5639126,97.0987756 58.5497071,95.6945154 C59.5574575,94.2531299 60.6660015,92.8962043 61.9392615,91.684995 C63.8740719,89.8370888 65.8512193,88.0374453 67.8124324,86.2173829 C68.7981342,85.2994626 69.783836,84.3806142 70.8177113,83.4144312 C70.8019623,83.7615517 70.6148271,83.9750215 70.4823503,84.2042695 C68.7768268,87.2160505 67.1352256,90.253819 65.6696426,93.3871849 C63.4154055,98.1930406 61.4386287,103.109344 59.7280099,108.134238 C59.3597613,109.207156 59.0672006,110.301421 58.7202595,111.455086 C58.3584958,111.503349 58.03805,111.546043 57.6336714,111.604515 C57.7027817,111.337214 57.7454893,111.14045 57.8094117,110.952968 C58.2357463,109.757537 58.4224182,108.523124 58.3526594,107.253443 C58.2570537,105.459368 57.6814743,103.868554 56.3332676,102.629501 C56.1201003,102.431809 56.0451537,102.223908 56.0503416,101.946397 C56.0612732,101.374669 56.1575274,100.819648 56.3171481,100.270195 Z M74.9476537,77.8404554 C74.9958271,77.7712169 75.0643815,77.7122806 75.1922263,77.5790012 C75.315439,78.0378686 75.4377254,78.4173808 75.5183232,78.8016265 C76.0139533,81.2518889 76.1631056,83.7290671 76.0139533,86.2229517 C75.9333555,87.5733804 75.8379351,88.9191685 75.7045319,90.2640284 C75.3904784,93.3825443 74.7827524,96.4472286 73.9832593,99.4747877 C73.1569003,102.619291 72.1128345,105.683975 70.6954249,108.615009 C70.1997948,109.639664 69.6606233,110.638332 69.0223258,111.583168 C67.3964736,111.470864 65.7974874,111.375267 64.1989644,111.257394 C62.5891391,111.14045 60.9909867,111.311226 59.3229828,111.369698 C59.3546661,111.204491 59.3655977,111.048565 59.4082126,110.905633 C60.1750961,107.98945 61.2784522,105.192067 62.3553129,102.384474 C64.9878038,95.5070332 68.2172742,88.9293779 71.9849897,82.6088146 C72.9438256,81.0012939 73.9573198,79.4308984 74.9476537,77.8404554 Z M93.0293531,128.721083 C93.0080457,128.652401 92.9867382,128.581864 92.9598723,128.517823 C92.1501886,126.48429 91.1857943,124.535218 89.8378656,122.794975 C87.3004245,119.522389 84.1728593,116.965392 80.4579492,115.138833 C77.2127298,113.537809 73.7757432,112.522435 70.2211023,111.871816 C70.0182181,111.833763 69.8162604,111.78086 69.5652029,111.727028 C69.6559913,111.551612 69.7041647,111.422601 69.7782776,111.305657 C70.5990782,109.975647 71.2975924,108.576956 71.8997599,107.130002 C74.5001969,100.910604 75.938914,94.4127682 76.4243536,87.7014623 C76.6105623,85.1871589 76.5948133,82.6774962 76.2529675,80.178971 C76.1038152,79.0958436 75.8648011,78.0378686 75.5072062,77.0023542 C75.4488423,76.8314856 75.4219764,76.6179229 75.1662868,76.6016806 C74.9004067,76.6819639 74.8624238,76.943418 74.7558865,77.1408312 C73.5191272,79.3733544 72.0646611,81.438443 70.2526003,83.2380865 C69.5605709,83.92119 68.8620566,84.5950122 68.1422349,85.2511999 C66.5061922,86.7566263 64.8437468,88.236065 63.2131699,89.7517008 C61.3849895,91.4446094 59.6795586,93.2488936 58.2357463,95.2935633 C57.1860294,96.7730021 56.3649509,98.3693852 55.8908135,100.125407 C55.7363807,100.712913 55.6562461,101.316197 55.5284013,101.962175 C55.4217714,101.919481 55.3151414,101.882356 55.213792,101.834093 C53.4553703,100.984855 51.6917608,101.065602 49.9275027,101.807178 C49.0057233,102.192351 48.1794569,102.741804 47.4333251,103.40913 C47.2788923,103.548349 47.1187157,103.676431 46.921668,103.841638 C46.921668,103.697778 46.9113849,103.628168 46.921668,103.564127 C47.2466532,101.673527 47.5935016,99.7838549 47.8971793,97.888614 C48.4300512,94.5408501 48.6968577,91.1615299 48.691114,87.7655032 C48.6859261,86.7454887 48.6322868,85.7319711 48.6057915,84.7119565 C48.5579886,83.0032697 48.4087437,81.3001517 48.0412363,79.6341588 C47.6788241,78.0165216 47.2466532,76.4153122 46.8577456,74.8025012 C45.9468979,71.0973146 45.0353089,67.3972327 43.88415,63.7612845 C43.3622098,62.1115339 42.882236,60.4462836 42.1684359,58.8658643 C42.0191911,58.5293245 41.8486387,58.1986319 41.6670621,57.8723943 C41.5288415,57.6161377 41.3795966,57.3656355 41.2304443,57.1196811 C41.2200685,57.1035316 41.2090442,57.0880319 41.198761,57.0717896 C40.9106471,56.6233173 40.50562,56.28158 39.9939629,56.0945618 C39.1096105,55.7800187 38.5126309,56.2763824 38.6722516,57.1947668 C38.7471983,57.6374847 38.880231,58.0756547 38.9706488,58.5131751 C39.0294759,58.8121256 39.1044226,59.122121 39.1044226,59.4263619 C39.0985862,61.2307388 38.8964432,63.0144185 38.4112815,64.7650568 C37.8194899,66.8904738 37.1056898,68.9725472 36.3169431,71.0280761 C34.7768766,75.0750001 33.6735205,79.2285662 33.0610699,83.5155973 C32.8427147,85.0859928 32.6398306,86.6601008 32.4693709,88.2407057 C32.2774184,90.0022959 32.0855586,91.770383 31.9738334,93.5366138 C31.8510838,95.4541298 31.803281,97.3707176 31.765854,99.2928743 C31.7283343,101.215031 31.8084689,103.131619 32.0003287,105.042638 C32.2399914,107.456703 32.7412726,109.816009 33.4602606,112.132621 C34.2276999,114.60423 34.7290738,117.140809 34.9209336,119.72565 C35.0804616,121.871486 35.106957,124.034028 35.1708794,126.185433 C35.2193307,127.535861 35.2297065,128.891859 35.5119841,130.221869 C35.9228476,132.158876 36.6418356,133.9381 38.2672245,135.21335 C38.2994636,135.240266 38.3207711,135.28296 38.3369833,135.309876 L38.3369833,144.892815 C38.1179796,144.65243 37.9958786,144.524348 37.878317,144.386056 C36.9351374,143.259307 36.0081701,142.122348 35.0487784,141.011377 C31.6482924,137.081675 28.5151687,132.949642 25.5893759,128.657042 C24.1133245,126.495428 22.9356702,124.183457 22.0667889,121.710919 C21.4434066,119.932623 21.0169794,118.118129 20.990484,116.222888 C20.9853888,115.704992 21.0169794,115.181527 21.0118841,114.658062 C21.0118841,114.568033 20.9265616,114.454801 20.8413318,114.397257 C20.809,114.370341 20.6494719,114.439951 20.6119523,114.503992 C20.1165074,115.357871 19.327668,115.955587 18.6668587,116.655397 C18.1449185,117.20485 17.6061176,117.744093 17.1216044,118.32603 C14.8722773,121.038025 14.1105817,124.113847 14.8935847,127.568346 C15.4109855,129.842264 16.3218333,131.935196 17.7449866,133.782174 C18.6455513,134.946977 19.0829101,136.27049 19.3115485,137.690529 C19.6900802,139.997859 20.3671017,142.207736 21.3793916,144.316447 C22.8555356,147.396909 25.0086086,149.842531 28.067434,151.433345 C28.1527565,151.476039 28.2270547,151.53544 28.3607359,151.619899 C28.2592938,151.695078 28.2057473,151.747981 28.1423807,151.780466 C26.4369498,152.661261 25.4402237,154.102646 24.9337545,155.918068 C24.4330291,157.695436 24.5073273,159.48487 24.992489,161.252029 C25.8665583,164.466143 27.6249799,167.061193 30.4654502,168.848771 C32.1333614,169.900342 33.9564466,170.392251 35.949343,170.04513 C36.0823757,170.018215 36.2206889,170.013574 36.3434384,170.002436 C37.3401645,171.497653 40.6231816,180.050369 40.7187873,181.417504 C39.988775,181.534448 39.2639506,181.51867 38.5443142,181.342325 C37.1431168,181.006342 35.8802327,180.386352 34.7019299,179.569597 C33.6205298,178.822453 32.6773502,177.931449 31.7974446,176.964337 C30.5668922,175.619477 29.3569062,174.257911 28.1314491,172.901914 C26.0745376,170.632636 23.8787571,168.523926 21.3793916,166.73542 C19.327668,165.271759 17.1429118,164.054981 14.8192865,163.077661 C11.8619031,161.828398 8.74943844,161.31607 5.56267556,161.144366 C4.43282411,161.086822 3.292041,161.075685 2.15700164,161.044128 C1.6136613,161.027422 1.0704136,161.016285 0.526517418,161.006075 C0.334657599,161.006075 0.147893042,161.027422 0.0626631854,161.240892 C0.0626631854,161.476637 0.238959292,161.572234 0.393392087,161.66876 C1.44310895,162.3036 2.30105863,163.152839 3.07368581,164.086538 C3.85724465,165.036942 4.60337646,166.019832 5.34950827,166.997152 C6.52716256,168.539704 7.66738982,170.11474 8.86635157,171.641513 C10.6997199,173.959053 12.8101779,175.987945 15.2345968,177.690135 C17.8677362,179.54361 20.7295139,180.81886 23.9214647,181.326547 C26.0958451,181.668099 28.2592938,182.042135 30.4228352,182.43659 C32.2826063,182.77907 34.1372821,183.152178 35.949343,183.713697 C37.4467945,184.177761 38.8750431,184.786615 40.1541394,185.714744 C40.4100143,185.902226 40.5591666,186.099918 40.5482349,186.414554 C40.543047,186.559342 40.5643545,186.703202 40.5695424,186.841494 C40.6173452,189.688068 40.6709844,192.533713 40.7135993,195.379359 C40.7452826,197.412891 40.7665901,199.45292 40.7988292,201.492021 C40.8040171,201.871626 40.8305125,202.250303 40.8731274,202.62898 C40.8783153,202.650327 40.8783153,202.671674 40.8841517,202.68838 C40.9106471,202.821103 40.9584499,202.91206 41.0275602,202.960322 C41.1076948,203.013226 41.2200685,203.013226 41.3531012,202.960322 C41.3693134,202.954754 41.3899724,202.949185 41.4112798,202.938975 C41.6244471,202.84245 41.8325191,202.719937 42.0191911,202.576077 C42.0779255,202.527814 42.1419406,202.479551 42.2000266,202.426648 C42.6749051,202.052612 43.0954033,201.609894 43.4688398,201.118913 C43.6657948,200.856252 43.7511173,200.59452 43.7459294,200.269674 C43.7349978,199.297923 43.7407415,198.326171 43.7459294,197.354419 C43.7459294,195.02667 43.7563052,192.704489 43.7459294,190.38138 C43.7459294,190.008272 43.8254155,189.681571 44.0598903,189.39385 C44.1826398,189.249062 44.2840819,189.084783 44.4171146,188.950204 C45.1684343,188.197491 45.9093782,187.429 46.6930297,186.708771 C48.1206298,185.389899 49.6606962,184.209318 51.2279065,183.056581 C51.3610319,182.960055 51.4992525,182.880236 51.6278384,182.794848 C51.7182561,182.826405 51.7925544,182.843111 51.8512888,182.874667 C53.9191319,184.108152 56.1201003,184.199108 58.3526594,183.489089 C61.2202735,182.57581 63.3359194,180.723263 64.7054335,178.042824 C65.5732958,176.339706 65.9577566,174.524284 65.6057202,172.603056 C65.2536839,170.659552 64.2732626,169.132779 62.578856,168.091417 C62.3766203,167.963335 62.1738289,167.845463 61.9605689,167.717381 C62.0193961,167.621784 62.0671989,167.541036 62.1208381,167.466786 C65.0885047,163.254005 67.4659545,158.753504 68.8518661,153.762023 C69.5337049,151.315473 70.3063321,148.896767 70.7750963,146.40381 C71.1799382,144.242196 71.4995501,142.058307 71.8515865,139.884627 C72.2619868,137.344336 72.9493841,134.893146 74.0360648,132.555187 C74.3084298,131.97325 74.5798683,131.395953 74.8411164,130.814016 C74.8939218,130.691502 74.9105972,130.557852 74.9430216,130.424201 C74.6382322,130.237647 74.457582,130.392645 74.2973128,130.568061 C74.13797,130.744406 74.0101253,130.953235 73.8498561,131.118442 C72.3898316,132.619228 70.8492093,134.012351 68.941728,134.93584 C68.6008086,135.101047 68.2756381,135.304307 67.9504677,135.490861 C64.9664963,137.216254 62.1473335,139.169967 59.7170782,141.625799 C55.2777144,146.110521 51.9203991,151.315473 49.5599953,157.167331 C47.4494446,162.404767 45.8079361,167.79256 44.5876669,173.313075 C44.278894,174.721976 43.9268576,176.120667 43.5753771,177.525856 C43.5114547,177.78202 43.4952425,178.080877 43.2181528,178.347251 C43.1968453,178.186684 43.1807258,178.102224 43.1755379,178.016836 C43.0740958,176.387969 42.9784902,174.754461 42.8661164,173.120952 C42.8131257,172.297701 42.7116836,171.470738 42.6586929,170.642846 C42.5521556,169.132779 42.4616452,167.621784 42.3602958,166.10522 C42.3389883,165.789656 42.4294061,165.523282 42.5999584,165.245772 C44.5398641,162.090131 45.0353089,158.726589 44.0598903,155.144008 C43.6444874,153.606097 43.0314809,152.148933 42.2910928,150.739104 C42.1949313,150.55255 42.0831135,150.354859 42.0721818,150.157167 C42.0404985,149.660617 42.0721818,149.164068 42.0721818,148.668447 L42.0721818,136.932247 C42.0669939,136.649167 42.0721818,136.371656 42.0721818,136.062589 C42.3440836,135.934507 42.5999584,135.811066 42.8557406,135.69969 C43.5540696,135.400833 44.2627744,135.1391 44.9397033,134.807758 C46.6820054,133.94831 48.3124896,132.89117 49.9223148,131.807114 C53.5406002,129.37263 56.8339004,126.580816 59.4185884,123.025151 C59.498723,122.912847 59.6052604,122.816322 59.700866,122.709587 C59.8133324,122.725365 59.9089381,122.730934 59.9941679,122.752281 C61.3849895,123.142095 62.7972112,123.4623 64.1563494,123.927293 C67.9078528,125.218322 71.6431439,126.580816 75.4432838,127.739122 C78.6301394,128.709945 81.8327439,129.628794 85.1687516,129.987052 C87.7006342,130.253425 90.167668,129.991693 92.6032039,129.287242 C92.6504508,129.277033 92.6930658,129.260326 92.7356807,129.244548 C93.0562191,129.122035 93.1099509,129.02551 93.0293531,128.721083 Z" id="Shape"></path>
        </g>
    </g>
</svg>